<?xml version="1.0" encoding="utf-8"?>
<!-- Generator: Adobe Illustrator 20.1.0, SVG Export Plug-In . SVG Version: 6.00 Build 0)  -->
<svg version="1.1" id="Layer_1" xmlns="http://www.w3.org/2000/svg" xmlns:xlink="http://www.w3.org/1999/xlink" x="0px" y="0px"
	 viewBox="0 0 1504 1319" style="enable-background:new 0 0 1504 1319;" xml:space="preserve">
<style type="text/css">
	.st0{fill:none;stroke:#000000;stroke-width:10;stroke-linecap:round;stroke-linejoin:round;stroke-miterlimit:10;}
	.st1{fill:none;stroke:#000000;stroke-width:3;stroke-linecap:round;stroke-linejoin:round;stroke-miterlimit:10;}
	.st2{fill:none;stroke:#808080;stroke-width:10;stroke-linecap:round;stroke-linejoin:round;stroke-miterlimit:10;}
	.st3{fill:none;stroke:#000000;stroke-width:10;stroke-miterlimit:10;}
</style>
<g class="ex1" id="blue">
	<g id="SPLINE">
		<path class="st0" d="M111.4,57c-1.1,0.1-2.1,0.3-3.2,0.4c-0.9,0.2-1.9,0.4-2.8,0.6c-0.8,0.2-1.6,0.5-2.6,0.8
			c-0.7,0.2-1.5,0.5-2.3,0.9c-0.3,0.1-0.7,0.3-1.1,0.5c-0.5,0.2-1,0.4-1.5,0.7c-0.6,0.3-1.1,0.5-1.6,0.8c-0.9,0.5-1.7,0.9-2.6,1.4
			c-1,0.6-2,1.2-2.9,1.9c-1.9,1.4-3.7,2.9-5.4,4.6c-1.5,1.5-2.9,3.2-4.2,4.9c-0.4,0.5-0.8,1.1-1.1,1.6c-0.5,0.8-1,1.5-1.5,2.3
			c-0.6,1-1.2,2.1-1.7,3.2c-1,2.1-1.8,4.2-2.5,6.5c-0.8,2.7-1.2,5.5-1.6,8.3"/>
	</g>
	<g id="SPLINE_1_">
		<path class="st0" d="M182.5,621.3c-2.2-14.2-4.5-28.4-6.4-42.7c-2.2-16.3-3.9-32.6-5.4-48.9c-1.4-16.2-2.6-32.4-3.4-48.7
			c-0.8-16.1-1.3-32.2-1.5-48.3c-0.2-16-0.1-32,0.4-48c0.5-15.9,1.2-31.8,2.3-47.7c1.1-15.8,2.5-31.6,4.3-47.3
			c1.7-15.7,3.8-31.3,6.2-46.9c2.4-15.6,5.1-31.1,8.2-46.5c2.8-13.5,5.9-26.8,9-40.2"/>
	</g>
	<g id="SPLINE_2_">
		<path class="st0" d="M480.8,726c0.1-9.4,0.2-18.8,0.5-28.2c0.3-10.5,0.8-21.1,1.1-31.6c0.3-10.3,0.4-20.5,0.5-30.8
			c0.1-10,0.3-20,0.4-30c0.1-9.7,0.2-19.5,0.3-29.2c0-7.5,0.1-14.9,0.1-22.4c0-7.3,0-14.6,0-21.9c0-7.1-0.1-14.2-0.1-21.4
			c-0.1-7.3-0.1-14.7-0.2-22c-0.1-7.8-0.2-15.7-0.4-23.5c-0.2-10.7-0.5-21.5-0.7-32.2c-0.3-11.6-0.6-23.1-0.9-34.7
			c-0.3-12.4-0.7-24.8-1-37.1c-0.4-13.2-0.8-26.4-1.3-39.6c-0.5-14-1.1-28.1-1.7-42.1c-0.5-11.6-1.1-23.2-1.6-34.8
			c-0.6-12.1-1.2-24.2-1.9-36.3c-0.7-12.6-1.6-25.1-2.6-37.7c-1.1-13-2.3-26.1-3.7-39.1c-1.3-12.2-2.6-24.3-3.9-36.5"/>
	</g>
	<g id="SPLINE_3_">
		<path class="st0" d="M404.3,162.6c2.4,17.4,4.9,34.8,7,52.2c2.3,19.2,4.2,38.5,5.9,57.8c1.7,19.5,3.1,39,4.3,58.6
			c1.2,19.6,2,39.3,2.7,59c0.5,15.7,0.8,31.4,0.9,47.2c0.1,15.6,0.1,31.3-0.2,46.9c-0.2,15.5-0.7,31-1.3,46.4
			c-0.6,15.3-1.4,30.5-2.4,45.7c-0.9,13.2-2,26.5-3.1,39.7"/>
	</g>
	<g id="SPLINE_4_">
		<path class="st0" d="M463.7,95c-0.5-2.7-1-5.5-1.8-8.1c-0.8-2.7-2-5.3-3.4-7.8c-1.4-2.5-3-4.8-4.9-7c-1.8-2.1-3.8-4.1-6-5.8
			c-2.1-1.7-4.4-3.2-6.8-4.4c-2.3-1.2-4.6-2.2-7.1-3c-2.3-0.7-4.6-1.3-7-1.6c-2.2-0.3-4.4-0.4-6.6-0.5"/>
	</g>
	<g id="SPLINE_5_">
		<path class="st0" d="M65.4,399.8c0,2-0.1,4-0.1,6c-0.2,9.5-0.5,19-0.8,28.4c-0.3,9.5-0.6,19.1-0.9,28.6c-0.3,9.6-0.6,19.2-1,28.8
			c-0.3,9.5-0.7,19.1-1.1,28.6c-0.4,9.5-0.7,18.9-1.1,28.4c-0.4,9.4-0.7,18.8-1.1,28.1c-0.4,9.3-0.8,18.6-1.1,27.9
			c-0.3,6.3-0.5,12.6-0.8,18.9"/>
	</g>
	<g id="SPLINE_6_">
		<path class="st0" d="M66.2,366c-0.2,8.2-0.4,16.3-0.6,24.5c-0.1,3.1-0.2,6.2-0.2,9.3"/>
	</g>
	<g id="SPLINE_7_">
		<path class="st0" d="M71.3,153.1c-0.1,2.2-0.2,4.5-0.3,6.7c-0.1,1.8-0.1,3.5-0.2,5.3c-0.1,1.9-0.1,3.8-0.2,5.7
			c-0.1,2.4-0.2,4.8-0.2,7.2c-0.1,3-0.2,5.9-0.3,8.9c-0.1,1.9-0.1,3.9-0.2,5.8c-0.1,2.2-0.1,4.3-0.2,6.5c-0.1,2.4-0.1,4.8-0.2,7.2
			c-0.1,2.6-0.1,5.3-0.2,7.9c-0.1,2.9-0.1,5.8-0.2,8.7c-0.1,2.6-0.1,5.3-0.2,7.9c0,1.5-0.1,3.1-0.1,4.6c-0.1,3-0.1,6-0.2,9
			c-0.1,3.6-0.1,7.2-0.2,10.8c-0.1,4.3-0.2,8.6-0.3,12.9c-0.1,2.9-0.1,5.7-0.2,8.6c-0.1,3.1-0.1,6.3-0.2,9.4
			c-0.1,3.4-0.1,6.8-0.2,10.3c0,2.5-0.1,5.1-0.1,7.6c-0.1,6.1-0.2,12.3-0.4,18.4c-0.1,6.9-0.3,13.7-0.4,20.6
			c-0.2,7.7-0.3,15.3-0.5,23"/>
	</g>
	<g id="SPLINE_8_">
		<path class="st0" d="M57.5,623.6c-0.2,3.3-0.3,6.6-0.6,9.8c-0.2,3.3-0.5,6.5-0.8,9.6c-0.3,3.1-0.6,6.1-0.9,9
			c-0.3,2.8-0.6,5.6-0.9,8.3c-0.4,3.4-0.8,6.7-1.1,9.7c-0.3,3-0.6,5.8-0.7,8.4c-0.2,2.5-0.2,4.7-0.3,7"/>
	</g>
	<g id="SPLINE_9_">
		<path class="st0" d="M72.2,99.7c-0.1,0.8-0.1,1.7-0.2,2.5c-0.1,1.1-0.1,2.2-0.2,3.3c-0.1,1.4-0.1,2.8-0.1,4.3
			c0,1.8-0.1,3.6-0.1,5.5c0,2.2,0,4.5,0,6.9c0,2.7,0,5.6,0,8.5c0,2.2,0,4.4,0,6.6c0,2.4,0,4.9-0.1,7.5c-0.1,2.7-0.1,5.5-0.2,8.3"/>
	</g>
	<g id="SPLINE_10_">
		<path class="st0" d="M344.7,160.1c0.3-2.8,0.5-5.6,0.9-8.3c0.3-2.5,0.8-5,1.2-7.4c0.4-2.2,0.9-4.4,1.5-6.5c0.5-1.9,1-3.8,1.6-5.6
			c0.7-2.2,1.4-4.3,2.1-6.3c0.7-1.8,1.4-3.5,2.1-5.1c0.6-1.4,1.3-2.8,2-4.1c0.6-1.2,1.3-2.3,1.9-3.4c0.7-1.2,1.4-2.3,2.1-3.3
			c0.8-1.1,1.5-2,2.2-3"/>
	</g>
	<g id="SPLINE_11_">
		<path class="st0" d="M367,678.8c-0.4-0.3-0.8-0.7-1.2-1c-0.4-0.4-0.9-0.8-1.3-1.3c-0.2-0.2-0.5-0.5-0.7-0.8
			c-0.2-0.2-0.4-0.4-0.6-0.6c-0.3-0.3-0.5-0.6-0.8-0.9c-0.3-0.4-0.7-0.8-1-1.2c-0.4-0.5-0.8-1-1.2-1.6c-0.8-1.1-1.7-2.3-2.5-3.6
			c-1-1.6-2-3.3-2.9-5.1c-1.1-2.2-2.2-4.5-3.3-7c-0.9-2.2-1.7-4.4-2.5-6.8c-0.9-2.7-1.7-5.5-2.4-8.4c-0.5-2.1-1-4.3-1.5-6.6
			c-0.5-2.4-0.9-4.8-1.2-7.3c-0.4-2.7-0.6-5.4-0.9-8.2"/>
	</g>
	<g id="SPLINE_12_">
		<path class="st0" d="M204.9,135.6c1,1.7,1.9,3.4,2.8,5.1c1.5,3,2.7,6.2,3.6,9.4c1,3.5,1.7,7,2.4,10.6"/>
	</g>
	<g id="SPLINE_13_">
		<path class="st0" d="M343.1,618.6c-0.7-9.8-1.4-19.7-2.1-29.5c-0.6-9.1-1.2-18.2-1.7-27.3c-0.5-8.3-1-16.6-1.4-24.9
			c-0.4-7.5-0.8-15.1-1.1-22.6c-0.3-6.7-0.6-13.5-0.8-20.2c-0.2-6-0.4-11.9-0.6-17.9c-0.2-6.2-0.4-12.4-0.5-18.6
			c-0.1-6.1-0.3-12.2-0.4-18.2c-0.1-6.1-0.2-12.1-0.2-18.2c-0.1-6.1-0.1-12.1-0.1-18.2c0-5.1,0-10.3,0-15.4c0-5.1,0.1-10.3,0.1-15.4
			c0.1-5.3,0.1-10.6,0.2-15.9c0.1-6,0.2-12,0.4-18c0.2-6.8,0.4-13.5,0.6-20.3c0.3-7.5,0.5-15,0.9-22.5c0.3-7.8,0.7-15.5,1.1-23.2
			c0.4-8.4,0.9-16.8,1.4-25.2c0.5-9,1.1-18.1,1.7-27.1c0.6-9.7,1.3-19.3,2-29c0.7-10.3,1.5-20.6,2.3-30.9"/>
	</g>
	<g id="SPLINE_14_">
		<path class="st0" d="M216.7,619c-0.5,2.8-0.9,5.5-1.6,8.2c-0.6,2.5-1.4,5-2.4,7.4c-0.9,2.2-1.8,4.5-2.9,6.6c-1,2-2.1,4-3.2,5.9
			c-1.4,2.3-2.9,4.6-4.6,6.7c-0.9,1.1-1.8,2.2-2.8,3.3"/>
	</g>
	<g id="SPLINE_15_">
		<path class="st0" d="M213.6,160.8c1.3,9.5,2.6,18.9,3.8,28.4c1.1,8.8,2.1,17.7,3.1,26.5c0.9,8.2,1.7,16.4,2.5,24.6
			c0.7,7.6,1.4,15.1,2,22.7c0.6,6.9,1.1,13.8,1.5,20.8c0.4,6.3,0.8,12.6,1.2,18.8c0.3,4.5,0.5,9,0.7,13.4c0.2,4.1,0.4,8.1,0.6,12.2
			c0.2,3.7,0.3,7.3,0.4,11c0.1,3.3,0.2,6.5,0.3,9.8c0.1,2.9,0.2,5.8,0.2,8.7c0.1,3.2,0.2,6.3,0.2,9.5c0.1,4.6,0.2,9.2,0.2,13.9
			c0.1,5.3,0.1,10.6,0.1,15.9c0,6,0,11.9,0,17.9c0,6.6-0.1,13.3-0.3,19.9c-0.1,7.3-0.3,14.6-0.6,21.9c-0.3,8-0.6,15.9-0.9,23.9
			c-0.4,8.1-0.8,16.2-1.3,24.3c-0.5,8.7-1.1,17.3-1.8,26c-0.7,9.2-1.5,18.5-2.3,27.7c-0.9,9.8-1.9,19.6-3,29.4
			c-1.2,10.4-2.5,20.7-3.7,31.1"/>
	</g>
	<g id="SPLINE_18_">
		<path class="st1" d="M393.1,696.9c-53.6,0-116.7,0-175.3,0"/>
	</g>
	<g id="SPLINE_23_">
		<path class="st1" d="M141.2,151.7c0.1-0.6,0.3-1.3,0.4-1.9c0.1-0.6,0.3-1.3,0.5-1.9c0.2-0.6,0.3-1.2,0.5-1.9
			c0.2-0.6,0.4-1.2,0.6-1.9c0.2-0.6,0.4-1.2,0.6-1.8c0.2-0.6,0.4-1.2,0.6-1.8c0.2-0.6,0.5-1.2,0.7-1.8c0.2-0.6,0.5-1.2,0.7-1.8
			c0.3-0.6,0.5-1.2,0.8-1.8c1.2-2.6,2.5-5.1,3.9-7.6c1.4-2.5,3-4.9,4.7-7.2c1.6-2.2,3.3-4.3,5.2-6.3c1.8-2.1,3.8-4,5.8-5.8
			c2-1.8,4-3.5,6.2-5.1c2.1-1.6,4.4-3.1,6.6-4.5c0.7-0.4,1.5-0.9,2.2-1.3c0.7-0.4,1.5-0.8,2.2-1.2"/>
	</g>
	<g id="SPLINE_24_">
		<path class="st1" d="M119.4,308.5c2-26.4,4.8-52.7,8.4-78.8c3.6-26.1,8-52.2,13.5-78"/>
	</g>
	<g id="SPLINE_25_">
		<path class="st1" d="M126.5,624.3c-0.3-2.6-0.7-5.2-1-7.8c-0.3-2.6-0.6-5.2-0.9-7.9c-0.3-2.6-0.6-5.2-0.9-7.9
			c-0.3-2.6-0.6-5.3-0.8-7.9c-0.3-2.6-0.5-5.3-0.8-7.9c-0.3-2.6-0.5-5.3-0.8-7.9c-0.2-2.6-0.5-5.3-0.7-7.9c-0.2-2.6-0.5-5.3-0.7-7.9
			c-0.2-2.6-0.4-5.3-0.6-7.9c-0.2-2.6-0.4-5.3-0.6-7.9c-0.2-2.7-0.4-5.3-0.5-8c-0.2-2.7-0.3-5.3-0.5-8c-0.2-2.7-0.3-5.3-0.5-8
			c-0.1-2.7-0.3-5.3-0.4-8c-0.1-2.7-0.3-5.3-0.4-8c-0.1-2.7-0.2-5.3-0.3-8c-0.1-2.7-0.2-5.3-0.3-8c-0.1-2.7-0.2-5.3-0.3-8
			c-0.1-2.7-0.2-5.3-0.2-8c-0.1-2.7-0.1-5.3-0.2-8c-0.1-2.7-0.1-5.3-0.1-8c0-2.7-0.1-5.3-0.1-8c0-2.7-0.1-5.3-0.1-8
			c0-2.6,0-5.3,0-7.9c0-2.6,0-5.3,0-7.9c0-2.6,0-5.3,0-7.9c0-2.6,0-5.3,0.1-7.9c0-2.6,0.1-5.3,0.1-7.9c0-2.6,0.1-5.3,0.2-7.9
			c0.1-2.6,0.1-5.3,0.2-7.9c0.1-2.6,0.1-5.2,0.2-7.9c0.1-2.6,0.2-5.2,0.3-7.9c0.1-2.6,0.2-5.2,0.3-7.8c0.1-2.6,0.2-5.2,0.3-7.8
			c0.1-2.6,0.2-5.2,0.4-7.8c0.1-2.6,0.3-5.2,0.4-7.8c0.1-2.6,0.3-5.2,0.5-7.8c0.2-2.6,0.3-5.2,0.5-7.7c0.2-2.6,0.4-5.1,0.5-7.7
			c0.2-2.6,0.4-5.1,0.6-7.7"/>
	</g>
	<g id="SPLINE_26_">
		<path class="st1" d="M217.9,696.9c-0.9,0-1.8,0-2.6,0c-0.9,0-1.7,0-2.6-0.1c-0.9,0-1.7-0.1-2.5-0.1c-0.8,0-1.7-0.1-2.5-0.2
			c-0.8-0.1-1.6-0.1-2.4-0.2c-0.8-0.1-1.6-0.2-2.4-0.2c-0.8-0.1-1.6-0.2-2.3-0.3c-2.9-0.4-5.8-0.9-8.7-1.5c-2.8-0.6-5.6-1.3-8.3-2.2
			c-4.3-1.3-8.4-3-12.4-4.9c-3.9-1.9-7.6-4.1-11.1-6.5c-4.4-3.1-8.6-6.7-12.3-10.7c-3.6-3.8-6.8-8.1-9.7-12.7
			c-1.5-2.4-2.9-5-4.1-7.6c-1.2-2.5-2.3-5.2-3.3-7.9c-0.4-1.1-0.8-2.3-1.1-3.5c-0.4-1.1-0.7-2.3-1-3.5c-0.3-1.2-0.6-2.3-0.8-3.5
			c-0.3-1.2-0.5-2.3-0.7-3.5c-0.2-1.2-0.4-2.4-0.5-3.6"/>
	</g>
	<g id="SPLINE_27_">
		<path class="st1" d="M472.1,618.8c0,0.6-0.1,1.2-0.1,1.9c0,0.6-0.1,1.2-0.2,1.9c-0.1,0.6-0.1,1.2-0.2,1.9
			c-0.1,0.6-0.1,1.2-0.2,1.9c-0.1,0.6-0.2,1.2-0.3,1.9c-0.1,0.6-0.2,1.2-0.3,1.9c-0.1,0.6-0.2,1.2-0.3,1.8c-0.1,0.6-0.2,1.2-0.4,1.8
			c-0.1,0.6-0.3,1.2-0.4,1.8c-0.1,0.6-0.3,1.2-0.4,1.8c-0.7,2.9-1.5,5.7-2.4,8.5c-1,2.8-2,5.5-3.2,8.2c-1.1,2.5-2.4,4.9-3.7,7.2
			c-1.4,2.4-2.8,4.6-4.4,6.8c-1.5,2.1-3.1,4-4.8,5.9c-1.7,1.9-3.5,3.6-5.3,5.3c-2,1.8-4.1,3.5-6.3,5c-2.2,1.5-4.6,3-7,4.2
			c-2.3,1.2-4.7,2.3-7.2,3.2c-2.5,1-5.1,1.8-7.7,2.5c-1.2,0.3-2.5,0.6-3.7,0.9c-1.3,0.3-2.6,0.5-3.8,0.7c-1.3,0.2-2.6,0.4-4,0.6
			c-1.4,0.2-2.7,0.3-4.1,0.4c-1.4,0.1-2.8,0.2-4.2,0.2c-1.4,0-2.9,0.1-4.4,0.1"/>
	</g>
	<g id="SPLINE_28_">
		<path class="st1" d="M476.5,444.7c0.2,29.1-0.1,58.1-0.8,87.2c-0.7,29-1.9,58-3.6,86.9"/>
	</g>
	<g id="SPLINE_29_">
		<path class="st1" d="M467.3,232.2c3,35.3,5.2,70.7,6.7,106.1c1.5,35.4,2.3,70.9,2.5,106.3"/>
	</g>
	<g id="SPLINE_30_">
		<path class="st1" d="M459.6,159.5c0.4,2.9,0.7,5.9,1.1,8.8c0.4,3,0.7,5.9,1.1,8.9c0.3,3,0.7,6,1,9c0.3,3,0.7,6,1,9.1
			c0.3,3,0.6,6.1,0.9,9.1c0.3,3.1,0.6,6.1,0.9,9.2c0.3,3.1,0.6,6.2,0.9,9.3c0.3,3.1,0.6,6.2,0.8,9.3"/>
	</g>
	<g id="SPLINE_31_">
		<path class="st1" d="M421.7,96.1c0.6,0.4,1.2,0.7,1.8,1.1c0.6,0.4,1.2,0.8,1.7,1.2c0.6,0.4,1.1,0.8,1.7,1.2
			c0.6,0.4,1.1,0.8,1.7,1.3c2.7,2.1,5.4,4.5,7.8,7.1c2.4,2.5,4.6,5.2,6.7,8.1c2.1,2.9,4,5.9,5.7,9.1c1.4,2.5,2.6,5.2,3.8,7.9
			c1.1,2.7,2.1,5.4,3,8.3c0.4,1.2,0.7,2.4,1.1,3.6c0.3,1.2,0.6,2.4,0.9,3.6c0.3,1.2,0.6,2.4,0.8,3.6c0.2,1.2,0.5,2.4,0.7,3.7
			c0.2,1.2,0.4,2.5,0.5,3.7"/>
	</g>
	<g id="SPLINE_36_">
		<path class="st1" d="M374.2,88.7c-1,0-2.1,0-3.1,0c-1.1,0-2.2,0-3.4,0c-1.2,0-2.4,0-3.6,0c-1.3,0-2.6,0-3.9,0c-1.4,0-2.8,0-4.2,0
			c-1.5,0-3,0-4.5,0c-1.6,0-3.2,0-4.8,0c-1.7,0-3.4,0-5.1,0c-6.5,0-13.1,0-19.8,0c-4.8,0-9.6,0-14.4,0c-3.9,0-7.7,0-11.6,0
			c-3.9,0-7.8,0-11.7,0c-3.9,0-7.8,0-11.7,0c-0.4,0-0.7,0-1.1,0c-0.7,0-1.3,0-2,0c-1,0-2,0-3,0c-1.3,0-2.6,0-3.9,0
			c-1.6,0-3.2,0-4.8,0c-1.9,0-3.8,0-5.7,0c-2.2,0-4.4,0-6.6,0c-2.5,0-5,0-7.5,0"/>
	</g>
	<g id="SPLINE_37_">
		<path class="st1" d="M237.8,88.7c-1.1,0-2.1,0-3.2,0c-1,0-2.1,0-3.1,0.1c-1,0-2.1,0.1-3.1,0.1c-1,0-2.1,0.1-3.1,0.1
			c-1,0.1-2,0.1-3.1,0.2c-1,0.1-2,0.1-3,0.2c-1,0.1-2,0.2-3,0.3c-1,0.1-2,0.2-3,0.3c-1,0.1-2,0.2-3,0.4c-2.2,0.3-4.4,0.6-6.6,1
			c-2.3,0.4-4.6,0.9-6.9,1.4c-1.1,0.2-2.2,0.5-3.4,0.8c-1.1,0.3-2.2,0.6-3.3,0.9c-1.1,0.3-2.2,0.6-3.3,0.9c-1,0.3-2,0.5-3.1,0.7"/>
	</g>
	<g id="SPLINE_38_">
		<path class="st0" d="M116,56.7C116,56.7,116,56.7,116,56.7C116,56.7,116,56.7,116,56.7C116,56.7,116,56.7,116,56.7
			C116,56.7,116.1,56.7,116,56.7c0.1,0,0.2,0,0.2,0c0.1,0,0.1,0,0.2,0c0.1,0,0.2,0,0.3,0c0.1,0,0.2,0,0.3,0c0.1,0,0.3,0,0.4,0
			c0.1,0,0.3,0,0.5,0c0.2,0,0.3,0,0.5,0c0.2,0,0.4,0,0.6,0c0.2,0,0.4,0,0.6,0c0.2,0,0.4,0,0.7,0s0.5,0,0.7,0c0.3,0,0.5,0,0.8,0
			c0.3,0,0.6,0,0.9,0c1.2,0,2.7,0,4.2,0c1.6,0,3.3,0,5.2,0c1.9,0,3.9,0,6.1,0c2.2,0,4.6,0,7.1,0c5,0,10.6,0,16.7,0
			c6.1,0,12.7,0,19.7,0c4.7,0,9.5,0,14.5,0c5,0,10.2,0,15.5,0c5.3,0,10.8,0,16.4,0c8.3,0,16.9,0,25.6,0c8.7,0,17.4,0,26.2,0
			c8.8,0,17.6,0,26.3,0c8.7,0,17.4,0,25.8,0c4.2,0,8.4,0,12.5,0c4.1,0,8.1,0,12,0c3.9,0,7.8,0,11.6,0c3.8,0,7.5,0,11.1,0
			c1.6,0,3.2,0,4.8,0c1.6,0,3.1,0,4.6,0c1.5,0,3,0,4.5,0c1.5,0,2.9,0,4.3,0c1.4,0,2.8,0,4.2,0s2.7,0,4,0c1.3,0,2.6,0,3.9,0
			c1.3,0,2.5,0,3.7,0c1.2,0,2.4,0,3.6,0"/>
	</g>
	<g id="SPLINE_40_">
		<path class="st1" d="M421.7,96.1c-0.7-0.2-1.3-0.4-2-0.6c-0.7-0.2-1.3-0.4-2-0.6c-0.7-0.2-1.4-0.4-2.1-0.6c-1-0.3-2-0.6-3-0.8
			c-1.2-0.3-2.4-0.6-3.6-0.9c-1.7-0.4-3.4-0.8-5.2-1.2c-1.6-0.3-3.3-0.6-5-0.9c-1.6-0.2-3.2-0.5-4.8-0.7c-1.6-0.2-3.2-0.4-4.8-0.5
			c-1.6-0.1-3.3-0.3-4.9-0.4c-1.7-0.1-3.3-0.2-5-0.2c-1.7,0-3.4-0.1-5.2-0.1"/>
	</g>
	<g id="SPLINE_56_">
		<path class="st0" d="M480.5,726c0,0,0,0-0.2,0c-0.3,0-0.9,0-1.7,0c-0.8,0-1.8,0-3,0c-1.2,0-2.7,0-4.4,0c-1.7,0-3.7,0-5.6,0"/>
	</g>
	<g id="SPLINE_58_">
		<path class="st0" d="M416.8,56.7c0.2,0,0.4,0,0.6,0s0.4,0,0.5,0c0.2,0,0.3,0,0.5,0c0.2,0,0.3,0,0.4,0c0.1,0,0.3,0,0.4,0
			c0.1,0,0.2,0,0.3,0c0.1,0,0.2,0,0.3,0c0.1,0,0.2,0,0.2,0c0.1,0,0.1,0,0.2,0c0,0,0.1,0,0.1,0"/>
	</g>
	<g id="SPLINE_73_">
		<path class="st0" d="M57.5,623.4C57.5,623.5,57.5,623.5,57.5,623.4c-0.2,0.3,0.2,0.6,0.5,0.9"/>
	</g>
	<g id="SPLINE_75_">
		<path class="st0" d="M71.5,153.1c-0.1-0.1-0.2-0.3-0.2-0.4c-0.1-0.3,0.2-0.7,0.5-1"/>
	</g>
	<g id="SPLINE_82_">
		<path class="st0" d="M213.8,160.8c-0.1,0.1-0.1,0.2-0.1,0.3c0.1,0.2,0.4,0.3,0.7,0.4"/>
	</g>
	<g id="LINE">
		<line class="st0" x1="52.2" y1="685.2" x2="52.1" y2="726"/>
	</g>
	<g id="LINE_1_">
		<line class="st0" x1="72.6" y1="96.1" x2="72.2" y2="99.8"/>
	</g>
	<g id="LINE_2_">
		<line class="st0" x1="52.1" y1="726" x2="465.7" y2="726"/>
	</g>
	<g id="LINE_3_">
		<line class="st0" x1="52.2" y1="685" x2="52.2" y2="685.2"/>
	</g>
	<g id="LINE_4_">
		<line class="st0" x1="72.9" y1="96.1" x2="72.7" y2="96.1"/>
	</g>
	<g id="LINE_5_">
		<line class="st0" x1="116" y1="56.7" x2="111.4" y2="57.1"/>
	</g>
	<g id="ARC">
		<path class="st0" d="M182.4,621.4c5.7,35.1,36.1,60.9,71.7,61"/>
	</g>
	<g id="ARC_1_">
		<path class="st0" d="M266.8,100.4c-33.6,0-62.8,23-70.7,55.7"/>
	</g>
	<g id="ARC_2_">
		<path class="st0" d="M345.8,682.4c37.6-0.1,69-28.8,72.4-66.2"/>
	</g>
	<g id="ARC_3_">
		<path class="st0" d="M404.4,162.6c-5.2-35.7-35.8-62.2-71.9-62.2"/>
	</g>
</g>
<g>
	<g id="LINE_9_">
		<line class="st0" x1="118.9" y1="1185.1" x2="118.9" y2="1223"/>
	</g>
	<g id="SPLINE_17_">
		<path class="st0" d="M492.1,1185.1c-5.1-2.5-10.2-5.1-15.2-7.7c-4.5-2.4-9-4.8-13.5-7.4c-4-2.3-8-4.6-11.9-7.1
			c-3.5-2.2-7-4.4-10.4-6.8c-3-2.1-6-4.3-9-6.6c-2.6-2-5.1-4.1-7.5-6.2c-2.2-1.9-4.3-3.9-6.3-6.1c-1.8-1.9-3.5-3.9-5.1-5.9
			c-1.5-1.9-2.8-3.8-4.1-5.8c-1.5-2.4-2.8-4.8-3.8-7.4c-1-2.4-1.8-4.8-2.3-7.3c-0.5-2.4-0.9-4.9-1-7.3c-0.1-2.4-0.1-4.9,0.1-7.3
			c0.2-2.4,0.5-4.8,1-7.2c0.5-2.3,1.1-4.6,1.8-6.9c0.7-2.2,1.5-4.3,2.3-6.4c1.2-2.9,2.6-5.8,4.2-8.6c1.5-2.6,3.2-5.2,5-7.6
			c1.8-2.4,3.6-4.6,5.6-6.8c2-2.2,4-4.2,6.1-6.3c2.1-2,4.3-4,6.5-5.9c2.2-1.9,4.5-3.8,6.7-5.7c2.7-2.2,5.4-4.4,8-6.7
			c2.7-2.3,5.4-4.6,8-7c2.6-2.4,5.2-4.9,7.7-7.6c2.5-2.7,4.9-5.5,7.1-8.5c1.7-2.3,3.4-4.7,4.9-7.2c1.6-2.6,3.1-5.3,4.4-8.1
			c1.4-2.9,2.7-6,3.8-9c1.2-3.3,2.2-6.7,3-10.1c0.9-3.8,1.7-7.6,2.2-11.4c0.6-4.2,1-8.4,1.3-12.7c0.2-3.9,0.3-7.7,0.2-11.6
			c-0.1-4-0.4-7.9-0.8-11.9c-0.5-4-1.1-8-2-11.9c-0.9-3.9-2-7.8-3.3-11.6c-1.4-3.8-2.9-7.6-4.8-11.2c-1.8-3.7-3.9-7.3-6.2-10.8
			c-2.4-3.6-5-7-7.8-10.2c-2.5-2.9-5.3-5.7-8.1-8.4c-3-2.8-6.1-5.4-9.4-7.8c-3.5-2.6-7-5-10.7-7.2c-3.9-2.4-8-4.6-12.1-6.6
			c-4.4-2.1-9-4.1-13.6-5.9c-4.9-1.9-10-3.6-15.1-5.1c-4.3-1.3-8.6-2.4-12.9-3.4c-4.6-1.1-9.2-2-13.9-2.9c-4.9-0.9-9.9-1.6-14.9-2.3
			c-5.3-0.7-10.6-1.2-15.9-1.7c-5.6-0.5-11.3-0.8-16.9-1.1c-6-0.2-12-0.3-18-0.4"/>
	</g>
	<g id="LINE_8_">
		<line class="st0" x1="492.1" y1="1223" x2="492.1" y2="1185.1"/>
	</g>
	<g id="LINE_7_">
		<path class="st0" d="M118.9,1185.1"/>
		<path class="st0" d="M492.1,1185.1"/>
	</g>
	<g id="LINE_6_">
		<line class="st0" x1="492.1" y1="1223" x2="118.9" y2="1223"/>
	</g>
	<g id="SPLINE_16_">
		<path class="st0" d="M305.5,814.8c-6.5,0.1-13.1,0.2-19.6,0.5c-6.1,0.3-12.2,0.7-18.3,1.2c-5.7,0.5-11.4,1.2-17.1,2
			c-5.3,0.8-10.6,1.6-15.9,2.7c-4.9,1-9.8,2.1-14.7,3.4c-4.6,1.2-9.1,2.5-13.6,4c-4.2,1.4-8.4,2.9-12.4,4.6
			c-4.2,1.7-8.4,3.6-12.4,5.7c-3.8,1.9-7.5,4.1-11.2,6.3c-3.4,2.1-6.7,4.4-9.9,6.9c-3,2.3-6,4.8-8.8,7.4c-2.7,2.5-5.2,5.2-7.6,7.9
			c-2.8,3.2-5.4,6.7-7.8,10.2c-2.3,3.5-4.4,7.1-6.2,10.8c-1.8,3.6-3.4,7.4-4.8,11.2c-1.3,3.8-2.5,7.7-3.3,11.6
			c-0.9,3.9-1.6,7.9-2,11.9c-0.5,3.9-0.7,7.9-0.8,11.9c-0.1,3.9,0,7.7,0.2,11.6c0.2,4.2,0.7,8.5,1.3,12.7c0.6,3.8,1.3,7.6,2.2,11.4
			c0.8,3.4,1.9,6.8,3,10.1c1.1,3.1,2.3,6.1,3.8,9c1.3,2.8,2.8,5.5,4.4,8.1c1.5,2.5,3.2,4.9,4.9,7.2c2.3,3,4.7,5.9,7.3,8.6
			c2.5,2.7,5.1,5.2,7.8,7.7c2.6,2.4,5.4,4.8,8.1,7.1c2.7,2.3,5.5,4.5,8.2,6.8c2.7,2.2,5.4,4.5,8,6.8c2.1,1.8,4.1,3.7,6,5.6
			c2,1.9,3.9,3.9,5.7,6c1.8,2.1,3.6,4.3,5.2,6.5c1.7,2.3,3.2,4.7,4.6,7.2c1.5,2.6,2.8,5.3,3.9,8.1c0.9,2.1,1.7,4.3,2.3,6.4
			c0.7,2.3,1.3,4.6,1.8,6.9c0.5,2.4,0.8,4.8,1,7.2c0.2,2.4,0.2,4.9,0.1,7.3c-0.2,2.5-0.5,4.9-1,7.3c-0.6,2.5-1.4,5-2.3,7.3
			c-1.1,2.6-2.4,5-3.8,7.4c-1.3,2-2.7,4-4.1,5.9c-1.6,2.1-3.4,4.1-5.2,6c-2.1,2.1-4.2,4.2-6.4,6.2c-2.5,2.2-5.1,4.3-7.7,6.4
			c-3,2.3-6,4.5-9,6.6c-3.4,2.3-6.8,4.5-10.3,6.7c-3.9,2.4-7.8,4.7-11.8,7c-4.4,2.5-8.8,4.9-13.3,7.3c-4.9,2.6-9.9,5.1-14.9,7.6"/>
	</g>
</g>
<g>
	<g id="SPLINE_20_">
		<path class="st0" d="M1474.9,726c0.7,0,1.4,0,2.2-0.1c0.6-0.1,1.3-0.2,1.8-0.5c0.6-0.3,1.1-0.6,1.5-1c0.5-0.5,0.8-1.1,1.1-1.7
			c0.4-0.9,0.7-1.9,0.8-2.9c0.2-1.4,0.3-2.8,0.3-4.2c0-1.4,0-2.9-0.1-4.3c-0.1-1.8-0.2-3.5-0.4-5.3c-0.2-2.3-0.5-4.7-0.8-7
			c-0.4-2.8-0.8-5.7-1.2-8.5c-0.5-3.4-1.1-6.7-1.6-10.1c-0.7-3.9-1.4-7.9-2.1-11.8c-0.8-4.6-1.7-9.1-2.5-13.7c-1-5.2-2-10.4-3-15.6
			c-1.1-5.9-2.3-11.8-3.4-17.8c-1.2-6.1-2.4-12.2-3.6-18.3c-1.3-6.8-2.7-13.5-4-20.3c-1.5-7.4-2.9-14.9-4.4-22.3
			c-1.6-8-3.2-15.9-4.7-23.9c-1.6-8.2-3.3-16.3-4.9-24.5c-1.6-8-3.2-16-4.8-24c-1.6-8.1-3.3-16.1-5-24.2c-1.6-7.7-3.1-15.3-4.7-23
			c-1.5-7.5-3-15.1-4.3-22.6c-1.4-7.7-2.8-15.3-4-23c-1-6.3-2-12.6-2.9-18.9c-1-6.7-1.9-13.3-2.7-20c-0.9-7.2-1.7-14.3-2.4-21.5
			c-0.8-7.8-1.5-15.6-2.2-23.4c-0.6-6.8-1.1-13.5-1.6-20.3c-0.5-7.3-1-14.6-1.4-21.9c-0.5-7.9-0.9-15.8-1.2-23.8
			c-0.4-8.6-0.7-17.2-1.1-25.8c-0.3-9.3-0.6-18.7-0.9-28c-0.2-7.9-0.4-15.8-0.6-23.7c-0.2-8.4-0.3-16.8-0.4-25.3
			c-0.1-9-0.2-18-0.3-26.9c-0.1-9.6-0.2-19.1-0.2-28.7c0-5.4,0-10.7,0-16.1"/>
	</g>
	<g id="SPLINE_19_">
		<path class="st0" d="M1131.4,71.3c0,5.5,0,11,0,16.4c0,9.7-0.1,19.4-0.2,29c-0.1,9.1-0.2,18.2-0.3,27.2c-0.1,8.5-0.3,17-0.4,25.5
			c-0.2,8-0.3,15.9-0.6,23.9c-0.2,7.5-0.4,14.9-0.7,22.4c-0.2,7-0.5,14-0.8,21c-0.3,6.5-0.6,13.1-0.9,19.6
			c-0.4,7.7-0.8,15.3-1.3,22.9c-0.4,7.1-0.9,14.1-1.5,21.2c-0.5,6.6-1,13.1-1.6,19.7c-0.6,6.1-1.2,12.2-1.8,18.3
			c-0.6,5.7-1.3,11.4-2,17.1c-1,7.9-2,15.9-3.2,23.8c-1.1,7.4-2.3,14.9-3.5,22.3c-1.2,7.1-2.5,14.3-3.8,21.4
			c-1.3,7.1-2.7,14.1-4.1,21.2c-1.4,7.2-2.9,14.4-4.4,21.6c-1.5,7.5-3.1,15.1-4.6,22.6c-1.4,6.8-2.8,13.6-4.1,20.4
			c-1.4,7-2.8,13.9-4.2,20.9c-1.4,6.9-2.8,13.8-4.1,20.7c-1.3,6.6-2.6,13.3-3.9,19.9c-1.2,6.2-2.4,12.3-3.7,18.5
			c-1.1,5.6-2.2,11.1-3.3,16.7c-1,5.1-2,10.2-3,15.3c-0.9,4.6-1.8,9.3-2.7,13.9c-0.8,4.2-1.6,8.4-2.4,12.7c-0.9,4.5-1.7,9-2.5,13.5
			c-0.7,4-1.5,7.9-2.2,11.9c-0.6,3.4-1.2,6.9-1.8,10.3c-0.5,3-1,5.9-1.4,8.9c-0.4,2.5-0.7,5.1-1.1,7.6c-0.3,2.1-0.5,4.3-0.7,6.4
			c-0.2,2.2-0.4,4.4-0.5,6.5c-0.1,1.7-0.1,3.3,0.1,5c0.1,1,0.2,2,0.4,2.9c0.2,0.7,0.4,1.5,0.7,2.2c0.3,0.6,0.7,1.2,1.1,1.7
			c0.4,0.4,0.9,0.8,1.5,1c0.6,0.3,1.2,0.4,1.8,0.5c0.7,0.1,1.4,0.1,2.2,0.1"/>
	</g>
	<g id="LINE_12_">
		<line class="st0" x1="1474.9" y1="726" x2="1061.7" y2="726"/>
	</g>
	<g id="LINE_11_">
		<line class="st0" x1="1146" y1="56.7" x2="1390.6" y2="56.7"/>
	</g>
	<g id="LINE_10_">
		<path class="st2" d="M1131.4,71.3"/>
		<path class="st2" d="M1405.2,71.3"/>
	</g>
	<g id="ARC_5_">
		<path class="st0" d="M1405.2,71.3c0-8-6.5-14.5-14.5-14.5"/>
	</g>
	<g id="ARC_4_">
		<path class="st0" d="M1146,56.7c-8,0-14.5,6.5-14.5,14.5"/>
	</g>
</g>
<g>
	<g id="SPLINE_72_">
		<path class="st0" d="M833.7,974.9c-0.6-0.9-1.2-1.8-1.8-2.8c-0.6-1-1.3-2.1-1.9-3.3c-0.7-1.2-1.3-2.5-1.9-3.8
			c-0.7-1.4-1.3-2.8-1.8-4.3c-0.9-2.2-1.6-4.4-2.3-6.7c-0.7-2.6-1.4-5.2-1.8-7.8c-0.5-3-0.7-6-0.9-9"/>
	</g>
	<g id="SPLINE_71_">
		<path class="st0" d="M754.1,937.3c-0.2,3-0.4,6-0.9,9c-0.4,2.6-1,5.3-1.8,7.8c-0.7,2.3-1.4,4.5-2.3,6.7c-0.6,1.4-1.2,2.9-1.8,4.3
			c-0.6,1.3-1.2,2.5-1.9,3.8c-0.6,1.1-1.3,2.2-1.9,3.3c-0.6,1-1.2,1.9-1.8,2.8"/>
	</g>
	<g id="SPLINE_69_">
		<path class="st0" d="M716.8,1149C716.8,1149,716.8,1149,716.8,1149c0.3,0.3,0.5,0.6,0.7,0.9c0.2,0.3,0.3,0.7,0.4,1.1
			c0.1,0.4,0.1,0.9,0.1,1.3c-0.1,0.4-0.2,0.8-0.3,1.2c-0.2,0.3-0.3,0.7-0.5,0.9c0,0-0.1,0.1-0.1,0.1"/>
	</g>
	<g id="SPLINE_68_">
		<path class="st0" d="M850.1,1196.5c0-0.9,0.1-1.8,0.3-2.7c0.2-0.7,0.4-1.5,0.8-2.2c0.3-0.6,0.8-1.2,1.3-1.7
			c0.5-0.5,1.1-0.9,1.7-1.3c0.7-0.4,1.3-0.8,2-1.2c0.7-0.4,1.4-0.9,2-1.4c0.7-0.6,1.2-1.4,1.6-2.2c0.2-0.5,0.4-1,0.5-1.6
			c0.1-0.6,0.2-1.1,0.2-1.7"/>
	</g>
	<g id="SPLINE_67_">
		<path class="st0" d="M721.5,1206.5c0.7,0.4,1.3,0.9,1.8,1.4c0.3,0.4,0.6,0.9,0.8,1.3"/>
	</g>
	<g id="SPLINE_66_">
		<path class="st0" d="M715,1162.8c0.1,0.8,0.1,1.5,0.3,2.3c0.2,0.7,0.5,1.4,0.9,2c0.4,0.6,0.9,1.1,1.4,1.5c0.5,0.5,1.2,0.9,1.8,1.2
			c0.7,0.4,1.3,0.8,2,1.2c0.7,0.5,1.4,0.9,1.9,1.5c0.7,0.7,1.2,1.5,1.5,2.4c0.5,1.2,0.5,2.6,0.6,3.9"/>
	</g>
	<g id="SPLINE_65_">
		<path class="st0" d="M854.9,1152.8c0.4-0.3,0.8-0.5,1.2-0.8c0.7-0.4,1.4-0.9,2-1.4c0.7-0.6,1.3-1.3,1.6-2.2c0-0.1,0-0.1,0.1-0.2"
			/>
	</g>
	<g id="SPLINE_64_">
		<path class="st0" d="M850.1,1161.2c0-0.9,0-1.8,0.3-2.7c0.1-0.2,1.2-2.4,0.8-2.4"/>
	</g>
	<g id="SPLINE_63_">
		<path class="st0" d="M852.1,1202.8c-0.6-0.8-1.1-1.5-1.4-2.3c-0.5-1.2-0.5-2.5-0.6-3.9"/>
	</g>
	<g id="SPLINE_62_">
		<path class="st0" d="M725.4,1178.9c0,0.9-0.1,1.8-0.3,2.7c-0.1,0.7-0.4,1.5-0.8,2.1c-0.3,0.6-0.8,1.2-1.3,1.7
			c-0.5,0.5-1.1,0.9-1.7,1.3c-0.6,0.4-1.3,0.8-2,1.2c-0.7,0.4-1.4,0.9-2,1.4c-0.7,0.6-1.2,1.3-1.6,2.1c-0.2,0.5-0.4,1-0.5,1.5
			c-0.1,0.6-0.2,1.3-0.3,1.9"/>
	</g>
	<g id="SPLINE_61_">
		<path class="st0" d="M716.9,1154.6c-0.4,0.5-0.8,0.9-1.1,1.5c-0.3,0.5-0.4,1-0.5,1.5c-0.1,0.6-0.2,1.3-0.3,1.9"/>
	</g>
	<g id="SPLINE_60_">
		<path class="st0" d="M860.5,1177.2c-0.1-0.8-0.2-1.6-0.4-2.4c-0.2-0.7-0.5-1.3-0.9-1.9c-0.4-0.5-0.9-1.1-1.4-1.5
			c-0.5-0.5-1.1-0.8-1.8-1.2c-0.7-0.4-1.3-0.8-1.9-1.2c-0.7-0.4-1.3-0.9-1.9-1.5c-0.6-0.7-1.1-1.5-1.5-2.4c-0.4-1.2-0.5-2.6-0.6-3.9
			"/>
	</g>
	<g id="SPLINE_59_">
		<path class="st0" d="M851.9,1208.7c0.2-0.2,0.4-0.4,0.6-0.7c0.2-0.3,0.4-0.7,0.5-1.1c0.1-0.4,0.2-0.9,0.2-1.3
			c0-0.5-0.1-0.9-0.2-1.3c-0.1-0.4-0.3-0.7-0.5-1c-0.2-0.3-0.4-0.5-0.6-0.7"/>
	</g>
	<g id="SPLINE_55_">
		<path class="st0" d="M720.1,1205.2c0.3,0.3,0.5,0.5,0.8,0.8c0.3,0.3,0.7,0.6,1,0.8c0,0,0.1,0.1,0.1,0.1"/>
	</g>
	<g id="SPLINE_52_">
		<path class="st0" d="M715.1,1199c0,0.1,0,0.2,0,0.3c0,0.4,0.2,0.7,0.4,1.1c0.2,0.3,0.3,0.6,0.5,0.8c0.1,0.1,0.2,0.2,0.4,0.4"/>
	</g>
	<g id="SPLINE_49_">
		<path class="st0" d="M859.9,1148.3c0-0.1,0.1-0.2,0.1-0.4c0.1-0.2,0.2-0.4,0.3-0.5"/>
	</g>
	<g id="SPLINE_48_">
		<path class="st0" d="M821.3,937.3c0-2.2,0.1-4.4,0.2-6.6c0.1-1.8,0.2-3.6,0.4-5.3c0.1-1.4,0.3-2.8,0.4-4.2
			c0.1-1.2,0.3-2.5,0.5-3.7c0.2-1.3,0.4-2.6,0.6-3.9c0.5-2.7,1-5.4,1.7-8.1c0.7-2.7,1.5-5.5,2.4-8.1c0.5-1.5,1-2.9,1.6-4.3
			c0.6-1.4,1.1-2.8,1.8-4.1c0.6-1.3,1.3-2.6,2-3.9c0.8-1.4,1.6-2.8,2.4-4.2c1.1-1.7,2.2-3.3,3.4-4.9c1.4-1.9,2.9-3.7,4.5-5.4
			c1.2-1.3,2.5-2.5,3.8-3.7c1.5-1.3,3-2.6,4.5-3.7c1.7-1.3,3.5-2.5,5.4-3.7"/>
	</g>
	<g id="SPLINE_45_">
		<path class="st0" d="M718.7,859.3c2.1,1.4,4.3,2.8,6.3,4.4c1.8,1.4,3.4,2.8,5.1,4.4c1.4,1.3,2.7,2.7,4,4.2
			c1.1,1.3,2.2,2.6,3.2,3.9c1.9,2.6,3.7,5.3,5.2,8.1c1.6,2.9,3,5.9,4.2,9c0.9,2.3,1.7,4.6,2.4,7c0.7,2.2,1.2,4.4,1.8,6.6
			c0.5,2,0.9,4.1,1.2,6.2c0.2,1.4,0.5,2.8,0.7,4.2c0.2,1.8,0.5,3.6,0.6,5.4c0.2,2.2,0.4,4.4,0.5,6.6c0.2,2.7,0.2,5.3,0.3,8"/>
	</g>
	<g id="SPLINE_44_">
		<path class="st0" d="M787.4,1145.1c-12.6,0-25,0-37.1,0c-6.1,0-12.1,0-18.1,0c-3,0-6,0-8.9,0c-2.9,0-5.8,0-8.7,0
			c-11.5,0-22.4,0-32.7,0c-5.2,0-10.2,0-15.1,0s-9.6,0-14,0c-8.9,0-17,0-24.2,0c-3.6,0-7,0-10,0s-5.9,0-8.4,0s-4.8,0-6.7,0
			s-3.6,0-4.9,0c-2.6,0-4,0-4.1,0"/>
	</g>
	<g id="SPLINE_43_">
		<path class="st0" d="M594.4,1145.1c-0.3,0-0.6,0-0.9,0c-0.3,0-0.6-0.1-0.9-0.1c-0.3-0.1-0.6-0.1-1-0.2c-0.3-0.1-0.6-0.2-1-0.3
			c-0.3-0.1-0.6-0.3-0.9-0.4c-0.3-0.2-0.6-0.3-0.9-0.5c-0.3-0.2-0.6-0.4-0.9-0.6c-0.3-0.2-0.6-0.5-0.8-0.7c-0.3-0.3-0.5-0.6-0.8-0.9
			c-0.2-0.3-0.5-0.6-0.7-1c-0.2-0.3-0.4-0.7-0.6-1c-0.2-0.4-0.3-0.7-0.5-1.1c-0.1-0.4-0.2-0.8-0.3-1.2c-0.1-0.4-0.2-0.8-0.2-1.3
			c0-0.4,0-0.9,0-1.3c0-0.4,0.1-0.9,0.1-1.3c0.1-0.4,0.2-0.9,0.3-1.3c0.1-0.4,0.3-0.9,0.5-1.3c0.2-0.4,0.4-0.8,0.7-1.2"/>
	</g>
	<g id="SPLINE_42_">
		<path class="st0" d="M989.8,1129.1c1,1.6,1.6,3.4,1.6,5.2s-0.4,3.7-1.3,5.3c-0.9,1.6-2.2,3-3.8,4c-1.6,0.9-3.4,1.5-5.3,1.5"/>
	</g>
	<g id="SPLINE_41_">
		<path class="st0" d="M981.1,1145.1c-0.1,0-1.5,0-4.1,0c-1.3,0-3,0-4.9,0c-2,0-4.2,0-6.7,0c-2.5,0-5.3,0-8.4,0c-3.1,0-6.5,0-10.1,0
			c-7.2,0-15.3,0-24.3,0c-4.5,0-9.2,0-14.1,0c-4.9,0-10,0-15.2,0c-10.4,0-21.3,0-32.9,0c-5.8,0-11.7,0-17.7,0s-12,0-18.1,0
			c-12.2,0-24.6,0-37.2,0"/>
	</g>
	<g id="SPLINE_39_">
		<path class="st0" d="M989.8,1129.1c-18.8-29.2-49.4-85.4-72.2-87.9"/>
	</g>
	<g id="SPLINE_35_">
		<path class="st0" d="M585.6,1129.1c18.8-29.2,49.4-85.4,72.2-87.9"/>
	</g>
	<g id="SPLINE_33_">
		<path class="st0" d="M833.5,974.4c0.3,0.6,0.6,1.1,1,1.7c1.9,3.1,4.1,5.9,6.4,8.7c2.3,2.8,4.7,5.6,7.2,8.2
			c2.5,2.7,5.1,5.2,7.8,7.7c2.7,2.5,5.4,4.8,8.2,7.1c3.6,3,7.4,5.9,11.2,8.6c3.6,2.6,7.2,5.1,11,7.5c3.4,2.2,6.8,4.3,10.2,6.3
			c2.3,1.3,4.6,2.6,6.9,3.9c2,1.1,4,2.1,6,3.2c1.6,0.8,3.2,1.6,4.8,2.4c1.2,0.5,2.3,1,3.5,1.5"/>
	</g>
	<g id="SPLINE_34_">
		<path class="st0" d="M750,958.5c-1.1,2.9-2.3,5.7-3.6,8.5c-1.6,3.2-3.4,6.2-5.3,9.1c-2,3-4.1,5.9-6.4,8.7
			c-2.3,2.8-4.7,5.6-7.2,8.2c-2.5,2.7-5.1,5.2-7.8,7.7c-2.7,2.5-5.4,4.8-8.2,7.1c-3.6,3-7.4,5.9-11.2,8.6c-3.6,2.6-7.2,5.1-11,7.5
			c-3.4,2.2-6.8,4.3-10.2,6.3c-2.3,1.3-4.6,2.6-6.9,3.9c-2,1.1-4,2.1-6,3.2c-1.6,0.8-3.2,1.6-4.8,2.4c-1.2,0.5-2.3,1-3.5,1.5"/>
	</g>
	<g id="SPLINE_32_">
		<path class="st0" d="M853.1,1154.2c0.1-0.1,0.3-0.2,0.4-0.3c0.2-0.2,0.4-0.3,0.6-0.4c0.3-0.3,0.6-0.5,0.8-0.7"/>
	</g>
	<g id="SPLINE_46_">
		<path class="st0" d="M707.9,838.5c0-8,12.8-20.8,27.9-20.8"/>
	</g>
	<g id="SPLINE_47_">
		<path class="st0" d="M787.7,818.8c-5.1,0-10.3-0.1-15.4-0.1s-10.2-0.1-15.1-0.2c-2.4,0-4.9-0.1-7.2-0.1c-2.4,0-4.7-0.1-6.8-0.2
			c-2.1-0.1-4.2-0.2-5.6-0.3c-0.7-0.1-1.3-0.1-1.6-0.1c-0.2,0-0.3,0-0.3,0c0,0,0,0,0.1,0"/>
	</g>
	<g id="SPLINE_50_">
		<path class="st0" d="M839.7,817.7C839.8,817.7,839.8,817.7,839.7,817.7c0,0-0.1,0-0.2,0.1c-0.3,0-0.9,0.1-1.6,0.1
			s-1.6,0.1-2.5,0.1c-1,0-2,0.1-3.1,0.1c-2.1,0.1-4.5,0.1-6.8,0.2s-4.8,0.1-7.2,0.1c-4.9,0.1-10,0.1-15.1,0.2c-2.5,0-5.1,0-7.7,0.1
			c-1.3,0-2.6,0-3.8,0c-1.3,0-2.6,0-3.9,0"/>
	</g>
	<g id="SPLINE_51_">
		<path class="st0" d="M867.5,838.5c0-8-12.8-20.8-27.9-20.8"/>
	</g>
	<g id="SPLINE_53_">
		<path class="st0" d="M857.1,859.3c9-7.7,9.2-7,10.4-20.8"/>
	</g>
	<g id="SPLINE_54_">
		<path class="st0" d="M718.3,859.3c-9-7.7-9.2-7-10.4-20.8"/>
	</g>
	<g id="SPLINE_22_">
		<path class="st0" d="M787.8,817.7c0,0,0,0.4,0,1.1"/>
	</g>
	<g id="SPLINE_57_">
		<path class="st0" d="M787.8,817.7c-4.9,0-9.7,0-14.5,0s-9.6,0-14.3,0c-2.3,0-4.7,0-6.9,0c-2.3,0-4.5,0-6.7,0s-4.2,0-6,0
			c-0.9,0-1.7,0-2.3,0c-0.3,0-0.6,0-0.8,0c-0.2,0-0.3,0-0.4,0"/>
	</g>
	<g id="SPLINE_21_">
		<path class="st0" d="M787.8,817.7c4.8,0,9.7,0,14.5,0c4.8,0,9.6,0,14.3,0c2.3,0,4.6,0,6.9,0s4.5,0,6.7,0s4.2,0,6,0
			c0.9,0,1.7,0,2.3,0c0.3,0,0.6,0,0.8,0c0.2,0,0.3,0,0.4,0"/>
	</g>
	<g id="SPLINE_70_">
		<path class="st0" d="M853.9,1153.6c-0.1,0.1-0.3,0.3-0.5,0.4c-0.3,0.2-0.6,0.4-1,0.7c-0.1,0.1-0.2,0.1-0.3,0.2
			c0,0-0.1,0.1-0.1,0.1c0,0,0,0-0.1,0.1c0,0,0,0-0.1,0.1c0,0,0,0-0.1,0.1c0,0,0,0-0.1,0.1c-0.1,0.1-0.1,0.1-0.1,0.1c0,0,0,0.1,0,0.1
			c0,0,0,0.1,0,0.1c0,0.1,0,0.1,0,0.2c0,0.1,0.1,0.2,0,0.2c0,0,0,0-0.1,0"/>
	</g>
	<g id="LINE_34_">
		<line class="st0" x1="917" y1="1041.2" x2="916.1" y2="1040.5"/>
	</g>
	<g id="LINE_33_">
		<line class="st0" x1="659.4" y1="1040.5" x2="658.6" y2="1041.1"/>
	</g>
	<g id="LINE_32_">
		<line class="st0" x1="715" y1="1198.2" x2="715.1" y2="1199"/>
	</g>
	<g id="LINE_31_">
		<line class="st0" x1="715" y1="1194.9" x2="715" y2="1198.2"/>
	</g>
	<g id="LINE_30_">
		<line class="st0" x1="715" y1="1159.6" x2="715" y2="1162.8"/>
	</g>
	<g id="LINE_29_">
		<line class="st0" x1="860.5" y1="1180.5" x2="860.5" y2="1177.3"/>
	</g>
	<g id="LINE_28_">
		<line class="st0" x1="725.1" y1="1210.3" x2="737.8" y2="1223"/>
	</g>
	<g id="LINE_23_">
		<line class="st0" x1="716.3" y1="1201.5" x2="720" y2="1205.2"/>
	</g>
	<g id="LINE_20_">
		<line class="st0" x1="837.6" y1="1223" x2="851.9" y2="1208.7"/>
	</g>
	<g id="LINE_18_">
		<line class="st0" x1="715.9" y1="1148.1" x2="716.8" y2="1149"/>
	</g>
	<g id="LINE_15_">
		<line class="st0" x1="851.5" y1="1156.1" x2="854.5" y2="1153.2"/>
	</g>
	<g id="LINE_14_">
		<line class="st0" x1="753.9" y1="939.8" x2="753.8" y2="940.6"/>
	</g>
	<g id="LINE_13_">
		<line class="st0" x1="821.7" y1="940.6" x2="821.6" y2="939.8"/>
	</g>
	<g id="LINE_16_">
		<line class="st0" x1="753.9" y1="937.3" x2="753.1" y2="947"/>
	</g>
	<g id="LINE_17_">
		<line class="st0" x1="716.9" y1="1154.4" x2="716.9" y2="1154.6"/>
	</g>
	<g id="LINE_19_">
		<line class="st0" x1="859.7" y1="1148.3" x2="859.7" y2="1148.3"/>
	</g>
	<g id="LINE_21_">
		<line class="st0" x1="852.1" y1="1202.8" x2="851.9" y2="1202.6"/>
	</g>
	<g id="LINE_22_">
		<line class="st0" x1="737.8" y1="1223" x2="837.6" y2="1223"/>
	</g>
	<g id="LINE_24_">
		<line class="st0" x1="857.1" y1="859.3" x2="855" y2="860.9"/>
	</g>
	<g id="LINE_25_">
		<line class="st0" x1="821.6" y1="934.6" x2="821.5" y2="937.3"/>
	</g>
	<g id="LINE_26_">
		<line class="st0" x1="718.3" y1="859.3" x2="720.4" y2="860.8"/>
	</g>
	<g id="LINE_27_">
		<line class="st0" x1="753.8" y1="934" x2="753.9" y2="937.3"/>
	</g>
	<g id="ARC_7_">
		<path class="st0" d="M715.9,1148.1c-1.9-1.9-4.6-3-7.3-3"/>
	</g>
	<g id="ARC_6_">
		<path class="st0" d="M866.9,1145.1c-2.4,0-4.8,0.8-6.6,2.4"/>
	</g>
</g>
<g>
	<g id="SPLINE_76_">
		<path class="st3" d="M1482.7,1220.7c-0.8-6-1.7-11.9-2.6-17.9c-0.9-6.2-1.9-12.4-2.8-18.7c-0.9-5.7-1.8-11.4-2.7-17.1
			c-0.9-5.2-1.7-10.3-2.6-15.5c-0.8-4.6-1.7-9.3-2.6-13.9c-0.8-4-1.6-8.1-2.4-12.1c-0.2-0.9-0.4-1.7-0.6-2.6"/>
	</g>
	<g id="SPLINE_74_">
		<path class="st3" d="M1073.6,1123c-0.2,1.1-0.5,2.1-0.7,3.2c-0.9,4.1-1.7,8.3-2.5,12.4c-0.9,4.7-1.7,9.3-2.6,14
			c-0.9,5.1-1.8,10.2-2.6,15.3c-0.9,5.6-1.8,11.2-2.7,16.8c-1,6.1-1.9,12.2-2.8,18.4c-0.9,5.8-1.7,11.7-2.5,17.5"/>
	</g>
	<g id="LINE_38_">
		<line class="st3" x1="1480.6" y1="1223" x2="1059.3" y2="1223"/>
	</g>
	<g id="LINE_37_">
		<line class="st3" x1="1104" y1="1098.3" x2="1435.9" y2="1098.3"/>
	</g>
	<g id="LINE_36_">
		<path class="st2" d="M1482.7,1220.7"/>
		<path class="st2" d="M1057.2,1220.7"/>
	</g>
	<g id="LINE_35_">
		<path class="st2" d="M1073.6,1123"/>
		<path class="st2" d="M1466.4,1123"/>
	</g>
	<g id="ARC_11_">
		<path class="st0" d="M1480.6,1223c1.1,0,2.1-0.9,2.1-2.1c0-0.1,0-0.2,0-0.3"/>
	</g>
	<g id="ARC_10_">
		<path class="st0" d="M1057.2,1220.7c-0.2,1.1,0.6,2.2,1.8,2.3c0.1,0,0.2,0,0.3,0"/>
	</g>
	<g id="ARC_9_">
		<path class="st3" d="M1466.4,1123c-3.1-14.4-15.8-24.6-30.5-24.6"/>
	</g>
	<g id="ARC_8_">
		<path class="st3" d="M1104,1098.3c-14.7,0-27.4,10.3-30.5,24.6"/>
	</g>
</g>
<g>
	<g id="SPLINE_80_">
		<path class="st0" d="M627.7,31.4c0,2.3,0.1,4.6,0.1,6.8c0.2,4.4,0.5,8.7,1,13.1c0.4,4,1,7.9,1.7,11.9c0.7,3.7,1.5,7.3,2.5,11
			c0.9,3.5,2,6.9,3.3,10.3c1.6,4.5,3.5,8.9,5.6,13.1c2.2,4.5,4.6,8.9,7.1,13.2c2.7,4.5,5.5,9,8.4,13.4c3.2,4.8,6.5,9.5,9.9,14.2
			c3.4,4.6,6.9,9.2,10.5,13.8c3.5,4.4,7,8.8,10.5,13.1c3.3,4.1,6.7,8.1,10.1,12.1c3.1,3.7,6.3,7.4,9.3,11.3c1.7,2.1,3.3,4.2,4.8,6.4
			c1.6,2.2,3.1,4.5,4.5,6.8c1.5,2.4,2.9,4.9,4.2,7.5c1.4,2.8,2.7,5.6,3.8,8.4c1.3,3.2,2.4,6.4,3.4,9.7c1.1,3.6,2.1,7.3,3,10.9
			c1,4.1,1.8,8.3,2.6,12.5c0.8,4.5,1.5,9.1,2.2,13.6c0.7,4.7,1.2,9.4,1.7,14.1c0.7,6.8,1.3,13.6,1.7,20.4c0.5,6.8,0.8,13.6,1.1,20.3
			c0.3,6.6,0.4,13.2,0.6,19.7c0.1,6.2,0.2,12.4,0.2,18.6c0,5.7,0,11.3,0,17"/>
	</g>
	<g id="SPLINE_79_">
		<path class="st0" d="M824.7,374.8c0-5.1,0-10.2,0-15.4c0-5.6,0.1-11.2,0.2-16.7c0.1-5.9,0.2-11.8,0.4-17.7
			c0.2-6.1,0.5-12.2,0.8-18.3c0.3-6.2,0.8-12.4,1.3-18.6c0.4-4.8,0.9-9.7,1.5-14.5c0.6-4.8,1.2-9.5,1.9-14.2c0.7-4.5,1.5-9,2.4-13.5
			c0.8-4.1,1.7-8.1,2.8-12.1c0.9-3.5,2-7,3.2-10.5c1.2-3.4,2.5-6.8,4-10.1c1.4-3,2.9-5.9,4.5-8.8c1.5-2.7,3.2-5.3,4.9-7.8
			c1.7-2.5,3.5-4.9,5.3-7.2c1.9-2.4,3.8-4.7,5.7-7c2-2.4,4-4.8,6-7.1c2.1-2.5,4.2-5,6.3-7.6c2.2-2.6,4.4-5.3,6.5-8
			c3.6-4.4,7.1-8.9,10.6-13.4c3.5-4.6,7-9.3,10.3-14c3.3-4.7,6.5-9.4,9.5-14.3c2.9-4.7,5.7-9.4,8.3-14.3c2.4-4.6,4.7-9.3,6.7-14.1
			c1.3-3.1,2.4-6.2,3.4-9.3c1-3.2,1.9-6.4,2.7-9.7c0.8-3.4,1.5-6.8,2.1-10.3c0.6-3.7,1.1-7.4,1.4-11.1c0.4-4.1,0.7-8.1,0.8-12.2
			c0.1-1.9,0.1-3.8,0.1-5.7"/>
	</g>
	<g id="SPLINE_78_">
		<path class="st0" d="M938.6,718.2c0-2.3-0.1-4.6-0.1-6.8c-0.2-4.4-0.5-8.7-1-13.1c-0.4-4-1-7.9-1.7-11.9c-0.7-3.7-1.5-7.3-2.5-11
			c-0.9-3.5-2-6.9-3.3-10.3c-1.6-4.5-3.5-8.9-5.6-13.1c-2.2-4.5-4.6-8.9-7.1-13.2c-2.7-4.5-5.5-9-8.4-13.4
			c-3.2-4.8-6.5-9.5-9.9-14.2c-3.4-4.6-6.9-9.2-10.5-13.8c-3.5-4.4-7-8.8-10.5-13.1c-3.3-4.1-6.7-8.1-10.1-12.1
			c-3.1-3.7-6.3-7.4-9.3-11.3c-1.7-2.1-3.3-4.2-4.8-6.4c-1.6-2.2-3.1-4.5-4.5-6.8c-1.5-2.4-2.9-4.9-4.2-7.5
			c-1.4-2.8-2.7-5.6-3.8-8.4c-1.3-3.2-2.4-6.4-3.4-9.7c-1.1-3.6-2.1-7.3-3-10.9c-1-4.1-1.8-8.3-2.6-12.5c-0.8-4.5-1.5-9.1-2.2-13.6
			c-0.7-4.7-1.2-9.4-1.7-14.1c-0.7-6.8-1.3-13.6-1.7-20.4c-0.5-6.8-0.8-13.6-1.1-20.3c-0.3-6.6-0.4-13.2-0.6-19.7
			c-0.1-6.2-0.2-12.4-0.2-18.6c0-5.7,0-11.3,0-17"/>
	</g>
	<g id="SPLINE_77_">
		<path class="st0" d="M741.6,374.8c0,5.1,0,10.2,0,15.4c0,5.6-0.1,11.2-0.2,16.7c-0.1,5.9-0.2,11.8-0.4,17.7
			c-0.2,6.1-0.5,12.2-0.8,18.3c-0.3,6.2-0.8,12.4-1.3,18.6c-0.4,4.8-0.9,9.7-1.5,14.5c-0.6,4.8-1.2,9.5-1.9,14.2
			c-0.7,4.5-1.5,9-2.4,13.5c-0.8,4.1-1.7,8.1-2.8,12.1c-0.9,3.5-2,7-3.2,10.5c-1.2,3.4-2.5,6.8-4,10.1c-1.4,3-2.9,5.9-4.5,8.8
			c-1.5,2.7-3.2,5.3-4.9,7.8c-1.7,2.5-3.5,4.9-5.3,7.2c-1.9,2.4-3.8,4.7-5.7,7c-2,2.4-4,4.8-6,7.1c-2.1,2.5-4.2,5-6.3,7.6
			c-2.2,2.6-4.4,5.3-6.5,8c-3.6,4.4-7.1,8.9-10.6,13.4c-3.5,4.6-7,9.3-10.3,14c-3.3,4.7-6.5,9.4-9.5,14.3c-2.9,4.7-5.7,9.4-8.3,14.3
			c-2.4,4.6-4.7,9.3-6.7,14.1c-1.3,3.1-2.4,6.2-3.4,9.3c-1,3.2-1.9,6.4-2.7,9.7c-0.8,3.4-1.5,6.8-2.1,10.3
			c-0.6,3.7-1.1,7.4-1.4,11.1c-0.4,4.1-0.7,8.1-0.8,12.2c-0.1,1.9-0.1,3.8-0.1,5.7"/>
	</g>
	<g id="LINE_40_">
		<line class="st0" x1="635.3" y1="23.6" x2="931" y2="23.6"/>
	</g>
	<g id="LINE_39_">
		<line class="st0" x1="931" y1="726" x2="635.3" y2="726"/>
	</g>
	<g id="ARC_15_">
		<path class="st0" d="M635.3,23.6c-4.2,0-7.6,3.4-7.6,7.6c0,0.1,0,0.1,0,0.2"/>
	</g>
	<g id="ARC_14_">
		<path class="st0" d="M938.7,31.4c0.1-4.2-3.2-7.7-7.5-7.8c-0.1,0-0.1,0-0.2,0"/>
	</g>
	<g id="ARC_13_">
		<path class="st0" d="M931,726c4.2,0,7.6-3.4,7.6-7.6c0-0.1,0-0.1,0-0.2"/>
	</g>
	<g id="ARC_12_">
		<path class="st0" d="M627.7,718.2c-0.1,4.2,3.2,7.7,7.5,7.8c0.1,0,0.1,0,0.2,0"/>
	</g>
</g>
</svg>
