<?xml version="1.0" encoding="utf-8"?>
<!-- Generator: Adobe Illustrator 15.1.0, SVG Export Plug-In . SVG Version: 6.00 Build 0)  -->
<!DOCTYPE svg PUBLIC "-//W3C//DTD SVG 1.1//EN" "http://www.w3.org/Graphics/SVG/1.1/DTD/svg11.dtd">
<svg version="1.1" id="Layer_1" xmlns="http://www.w3.org/2000/svg" xmlns:xlink="http://www.w3.org/1999/xlink" x="0px" y="0px"
	 width="1919.999px" height="1079.998px" viewBox="0 0 1919.999 1079.998" enable-background="new 0 0 1919.999 1079.998"
	 xml:space="preserve">
<rect x="-0.001" y="-0.001" fill="#CCE4FF" width="1920" height="1079.999"/>
<rect x="-0.001" y="918.359" fill="#7F992C" width="1920" height="161.639"/>

<path fill="#FFFFFF" d="M721.372,172.655c-6.662,0-12.862,1.96-18.071,5.324c-10.064-18.991-30.028-31.929-53.019-31.929
	c-16.302,0-31.081,6.506-41.891,17.062c-13.934-21.053-37.824-34.943-64.961-34.943c-35.457,0-65.374,23.707-74.775,56.133
	c-6.119-7.126-15.187-11.647-25.316-11.647c-18.427,0-33.364,14.938-33.364,33.364s14.938,33.365,33.364,33.365
	c10.129,0,19.197-4.521,25.316-11.647c9.401,32.426,39.318,56.132,74.775,56.132c27.137,0,51.028-13.889,64.961-34.942
	c10.81,10.555,25.589,17.062,41.891,17.062c22.99,0,42.954-12.939,53.019-31.93c5.209,3.363,11.409,5.325,18.071,5.325
	c18.426,0,33.363-14.938,33.363-33.365S739.798,172.655,721.372,172.655z"/>
</svg>
