<?xml version="1.0" encoding="utf-8"?>
<!-- Generator: Adobe Illustrator 15.1.0, SVG Export Plug-In . SVG Version: 6.00 Build 0)  -->
<!DOCTYPE svg PUBLIC "-//W3C//DTD SVG 1.1//EN" "http://www.w3.org/Graphics/SVG/1.1/DTD/svg11.dtd">
<svg version="1.1" id="Layer_1" xmlns="http://www.w3.org/2000/svg" xmlns:xlink="http://www.w3.org/1999/xlink" x="0px" y="0px"
	 width="345.035px" height="639.063px" viewBox="0 0 345.035 639.063" enable-background="new 0 0 345.035 639.063"
	 xml:space="preserve">
<g>
	
		<line fill="#B3DD5F" stroke="#59595B" stroke-width="5.894" stroke-miterlimit="10" x1="172.943" y1="240.153" x2="172.943" y2="603.326"/>
	<g>
		<g>
			<path fill="#27B4F2" stroke="#59595B" stroke-width="2.947" stroke-miterlimit="10" d="M173.016,38.675
				c44.403,42.116,5.973,78.164,0.284,82.968l-0.405-0.374c-44.406-42.116-6.06-77.348-0.369-82.15L173.016,38.675z"/>
			<path fill="#27B4F2" stroke="#59595B" stroke-width="2.947" stroke-miterlimit="10" d="M173.016,207.832
				c44.403,42.116,5.973,78.163,0.284,82.968l-0.405-0.375c-44.406-42.115-6.06-77.347-0.369-82.149L173.016,207.832z"/>
			<path fill="#27B4F2" stroke="#59595B" stroke-width="2.947" stroke-miterlimit="10" d="M47.175,164.664
				c42.115-44.404,78.162-5.975,82.968-0.283l-0.375,0.404c-42.116,44.406-77.348,6.059-82.15,0.368L47.175,164.664z"/>
			<path fill="#27B4F2" stroke="#59595B" stroke-width="2.947" stroke-miterlimit="10" d="M216.333,164.664
				c42.115-44.404,78.162-5.975,82.967-0.283l-0.374,0.404c-42.116,44.406-77.347,6.059-82.15,0.368L216.333,164.664z"/>
			<path fill="#27B4F2" stroke="#59595B" stroke-width="2.947" stroke-miterlimit="10" d="M84.236,75.755
				c61.179-1.619,59.493,51.046,58.868,58.466l-0.552,0.021c-61.182,1.62-58.977-50.409-58.349-57.829L84.236,75.755z"/>
			<path fill="#27B4F2" stroke="#59595B" stroke-width="2.947" stroke-miterlimit="10" d="M203.848,195.367
				c61.18-1.619,59.494,51.045,58.867,58.466l-0.551,0.021c-61.181,1.619-58.977-50.41-58.35-57.829L203.848,195.367z"/>
			<path fill="#27B4F2" stroke="#59595B" stroke-width="2.947" stroke-miterlimit="10" d="M84.34,253.825
				c-1.618-61.179,51.046-59.494,58.467-58.867l0.021,0.551c1.619,61.181-50.409,58.977-57.829,58.35L84.34,253.825z"/>
			<path fill="#27B4F2" stroke="#59595B" stroke-width="2.947" stroke-miterlimit="10" d="M203.954,134.213
				c-1.619-61.179,51.045-59.494,58.465-58.868l0.022,0.552c1.619,61.181-50.41,58.977-57.829,58.35L203.954,134.213z"/>
			<path fill="#27B4F2" stroke="#59595B" stroke-width="2.947" stroke-miterlimit="10" d="M124.496,48.356
				c57.141,21.916,35.432,69.927,32.013,76.543l-0.518-0.191c-57.143-21.916-35.195-69.142-31.777-75.756L124.496,48.356z"/>
			<path fill="#27B4F2" stroke="#59595B" stroke-width="2.947" stroke-miterlimit="10" d="M189.229,204.637
				c57.142,21.917,35.432,69.928,32.014,76.543l-0.518-0.191c-57.144-21.915-35.197-69.141-31.777-75.756L189.229,204.637z"/>
			<path fill="#27B4F2" stroke="#59595B" stroke-width="2.947" stroke-miterlimit="10" d="M56.449,212.912
				c21.917-57.142,69.927-35.431,76.543-32.013l-0.191,0.518c-21.917,57.144-69.142,35.196-75.756,31.777L56.449,212.912z"/>
			<path fill="#27B4F2" stroke="#59595B" stroke-width="2.947" stroke-miterlimit="10" d="M212.729,148.178
				c21.917-57.141,69.928-35.431,76.542-32.013l-0.189,0.519c-21.917,57.143-69.142,35.195-75.757,31.777L212.729,148.178z"/>
			<path fill="#27B4F2" stroke="#59595B" stroke-width="2.947" stroke-miterlimit="10" d="M56.664,116.588
				c55.903-24.908,74.5,24.392,76.761,31.487l-0.501,0.231c-55.903,24.909-73.778-24.003-76.038-31.098L56.664,116.588z"/>
			<path fill="#27B4F2" stroke="#59595B" stroke-width="2.947" stroke-miterlimit="10" d="M212.946,181.321
				c55.901-24.907,74.498,24.393,76.76,31.487l-0.502,0.231c-55.903,24.909-73.777-24.003-76.037-31.098L212.946,181.321z"/>
			<path fill="#27B4F2" stroke="#59595B" stroke-width="2.947" stroke-miterlimit="10" d="M124.906,281.062
				c-24.908-55.901,24.393-74.499,31.487-76.76l0.23,0.501c24.91,55.903-24.003,73.777-31.098,76.037L124.906,281.062z"/>
			<path fill="#27B4F2" stroke="#59595B" stroke-width="2.947" stroke-miterlimit="10" d="M189.639,124.782
				c-24.908-55.902,24.393-74.5,31.488-76.76l0.23,0.5c24.909,55.904-24.002,73.778-31.098,76.038L189.639,124.782z"/>
			<g>
				<g>
					<g>
						<path fill="#27B4F2" d="M172.554,70.191c33.305,31.586,4.481,58.622,0.214,62.225l-0.303-0.28
							c-33.306-31.587-4.544-58.011-0.277-61.613L172.554,70.191z"/>
						<path fill="none" stroke="#59595B" stroke-width="2.947" stroke-miterlimit="10" d="M172.554,70.191
							c33.305,31.586,4.481,58.622,0.214,62.225l-0.303-0.28c-33.306-31.587-4.544-58.011-0.277-61.613L172.554,70.191z"/>
					</g>
					<g>
						<path fill="#27B4F2" d="M172.554,197.059c33.305,31.587,4.481,58.623,0.214,62.225l-0.303-0.28
							c-33.306-31.587-4.544-58.01-0.277-61.611L172.554,197.059z"/>
						<path fill="none" stroke="#59595B" stroke-width="2.947" stroke-miterlimit="10" d="M172.554,197.059
							c33.305,31.587,4.481,58.623,0.214,62.225l-0.303-0.28c-33.306-31.587-4.544-58.01-0.277-61.611L172.554,197.059z"/>
					</g>
					<g>
						<path fill="#27B4F2" d="M78.174,164.683c31.588-33.304,58.623-4.48,62.227-0.213l-0.281,0.304
							c-31.587,33.305-58.01,4.543-61.613,0.275L78.174,164.683z"/>
						<path fill="none" stroke="#59595B" stroke-width="2.947" stroke-miterlimit="10" d="M78.174,164.683
							c31.588-33.304,58.623-4.48,62.227-0.213l-0.281,0.304c-31.587,33.305-58.01,4.543-61.613,0.275L78.174,164.683z"/>
					</g>
					<g>
						<path fill="#27B4F2" d="M205.043,164.683c31.586-33.304,58.621-4.48,62.225-0.213l-0.28,0.304
							c-31.587,33.305-58.011,4.543-61.612,0.275L205.043,164.683z"/>
						<path fill="none" stroke="#59595B" stroke-width="2.947" stroke-miterlimit="10" d="M205.043,164.683
							c31.586-33.304,58.621-4.48,62.225-0.213l-0.28,0.304c-31.587,33.305-58.011,4.543-61.612,0.275L205.043,164.683z"/>
					</g>
					<g>
						<path fill="#27B4F2" d="M105.971,98c45.882-1.214,44.62,38.285,44.149,43.85l-0.413,0.017
							c-45.885,1.215-44.232-37.808-43.762-43.372L105.971,98z"/>
						<path fill="none" stroke="#59595B" stroke-width="2.947" stroke-miterlimit="10" d="M105.971,98
							c45.882-1.214,44.62,38.285,44.149,43.85l-0.413,0.017c-45.885,1.215-44.232-37.808-43.762-43.372L105.971,98z"/>
					</g>
					<g>
						<path fill="#27B4F2" d="M195.68,187.71c45.884-1.215,44.62,38.284,44.15,43.849l-0.413,0.017
							c-45.886,1.215-44.232-37.808-43.764-43.371L195.68,187.71z"/>
						<path fill="none" stroke="#59595B" stroke-width="2.947" stroke-miterlimit="10" d="M195.68,187.71
							c45.884-1.215,44.62,38.284,44.15,43.849l-0.413,0.017c-45.886,1.215-44.232-37.808-43.764-43.371L195.68,187.71z"/>
					</g>
					<g>
						<path fill="#27B4F2" d="M106.049,231.554c-1.215-45.885,38.284-44.621,43.85-44.151l0.016,0.413
							c1.215,45.886-37.807,44.232-43.371,43.762L106.049,231.554z"/>
						<path fill="none" stroke="#59595B" stroke-width="2.947" stroke-miterlimit="10" d="M106.049,231.554
							c-1.215-45.885,38.284-44.621,43.85-44.151l0.016,0.413c1.215,45.886-37.807,44.232-43.371,43.762L106.049,231.554z"/>
					</g>
					<g>
						<path fill="#27B4F2" d="M195.758,141.844c-1.214-45.884,38.284-44.62,43.85-44.15l0.016,0.413
							c1.214,45.886-37.807,44.232-43.372,43.763L195.758,141.844z"/>
						<path fill="none" stroke="#59595B" stroke-width="2.947" stroke-miterlimit="10" d="M195.758,141.844
							c-1.214-45.884,38.284-44.62,43.85-44.15l0.016,0.413c1.214,45.886-37.807,44.232-43.372,43.763L195.758,141.844z"/>
					</g>
					<g>
						<path fill="#27B4F2" d="M136.166,77.451c42.856,16.438,26.573,52.445,24.01,57.407l-0.388-0.144
							c-42.857-16.437-26.397-51.855-23.834-56.816L136.166,77.451z"/>
						<path fill="none" stroke="#59595B" stroke-width="2.947" stroke-miterlimit="10" d="M136.166,77.451
							c42.856,16.438,26.573,52.445,24.01,57.407l-0.388-0.144c-42.857-16.437-26.397-51.855-23.834-56.816L136.166,77.451z"/>
					</g>
					<g>
						<path fill="#27B4F2" d="M184.715,194.662c42.856,16.437,26.574,52.445,24.01,57.407l-0.39-0.144
							c-42.855-16.438-26.396-51.855-23.832-56.816L184.715,194.662z"/>
						<path fill="none" stroke="#59595B" stroke-width="2.947" stroke-miterlimit="10" d="M184.715,194.662
							c42.856,16.437,26.574,52.445,24.01,57.407l-0.39-0.144c-42.855-16.438-26.396-51.855-23.832-56.816L184.715,194.662z"/>
					</g>
					<g>
						<path fill="#27B4F2" d="M85.129,200.868c16.438-42.856,52.445-26.573,57.408-24.01l-0.144,0.389
							c-16.438,42.857-51.856,26.397-56.817,23.833L85.129,200.868z"/>
						<path fill="none" stroke="#59595B" stroke-width="2.947" stroke-miterlimit="10" d="M85.129,200.868
							c16.438-42.856,52.445-26.573,57.408-24.01l-0.144,0.389c-16.438,42.857-51.856,26.397-56.817,23.833L85.129,200.868z"/>
					</g>
					<g>
						<path fill="#27B4F2" d="M202.34,152.318c16.438-42.856,52.445-26.573,57.408-24.01l-0.145,0.388
							c-16.437,42.857-51.855,26.397-56.816,23.833L202.34,152.318z"/>
						<path fill="none" stroke="#59595B" stroke-width="2.947" stroke-miterlimit="10" d="M202.34,152.318
							c16.438-42.856,52.445-26.573,57.408-24.01l-0.145,0.388c-16.437,42.857-51.855,26.397-56.816,23.833L202.34,152.318z"/>
					</g>
					<g>
						<path fill="#27B4F2" d="M85.292,128.625c41.927-18.681,55.875,18.294,57.57,23.615l-0.376,0.174
							c-41.928,18.682-55.333-18.002-57.028-23.323L85.292,128.625z"/>
						<path fill="none" stroke="#59595B" stroke-width="2.947" stroke-miterlimit="10" d="M85.292,128.625
							c41.927-18.681,55.875,18.294,57.57,23.615l-0.376,0.174c-41.928,18.682-55.333-18.002-57.028-23.323L85.292,128.625z"/>
					</g>
					<g>
						<path fill="#27B4F2" d="M202.502,177.176c41.927-18.681,55.875,18.294,57.57,23.614l-0.377,0.175
							c-41.927,18.682-55.332-18.003-57.028-23.324L202.502,177.176z"/>
						<path fill="none" stroke="#59595B" stroke-width="2.947" stroke-miterlimit="10" d="M202.502,177.176
							c41.927-18.681,55.875,18.294,57.57,23.614l-0.377,0.175c-41.927,18.682-55.332-18.003-57.028-23.324L202.502,177.176z"/>
					</g>
					<g>
						<path fill="#27B4F2" d="M136.473,251.981c-18.682-41.927,18.294-55.875,23.614-57.57l0.175,0.375
							c18.682,41.929-18.002,55.334-23.325,57.029L136.473,251.981z"/>
						<path fill="none" stroke="#59595B" stroke-width="2.947" stroke-miterlimit="10" d="M136.473,251.981
							c-18.682-41.927,18.294-55.875,23.614-57.57l0.175,0.375c18.682,41.929-18.002,55.334-23.325,57.029L136.473,251.981z"/>
					</g>
					<g>
						<path fill="#27B4F2" d="M185.022,134.771c-18.68-41.928,18.296-55.875,23.617-57.571l0.173,0.376
							c18.682,41.928-18.003,55.334-23.323,57.028L185.022,134.771z"/>
						<path fill="none" stroke="#59595B" stroke-width="2.947" stroke-miterlimit="10" d="M185.022,134.771
							c-18.68-41.928,18.296-55.875,23.617-57.571l0.173,0.376c18.682,41.928-18.003,55.334-23.323,57.028L185.022,134.771z"/>
					</g>
				</g>
			</g>
		</g>
		<circle fill="#59595B" cx="173.238" cy="164.737" r="43.138"/>
	</g>
	<path fill="#B3DD5F" stroke="#59595B" stroke-width="2.947" stroke-miterlimit="10" d="M172.112,603.326
		c0,0,8.201-81.32-126.377-96.453C45.735,506.873,80.54,501.191,172.112,603.326z"/>
	<path fill="#B3DD5F" stroke="#59595B" stroke-width="2.947" stroke-miterlimit="10" d="M172.276,561.809
		c0,0-8.201-81.32,126.377-96.452C298.653,465.356,263.848,459.675,172.276,561.809z"/>
</g>
</svg>
