<?xml version="1.0" encoding="utf-8"?>
<!-- Generator: Adobe Illustrator 15.1.0, SVG Export Plug-In . SVG Version: 6.00 Build 0)  -->
<!DOCTYPE svg PUBLIC "-//W3C//DTD SVG 1.1//EN" "http://www.w3.org/Graphics/SVG/1.1/DTD/svg11.dtd">
<svg version="1.1" id="Layer_1" xmlns="http://www.w3.org/2000/svg" xmlns:xlink="http://www.w3.org/1999/xlink" x="0px" y="0px"
	 width="408.042px" height="738.073px" viewBox="0 0 408.042 738.073" enable-background="new 0 0 408.042 738.073"
	 xml:space="preserve">
<g>
	<path fill="#B3DD5F" stroke="#59595B" stroke-width="2.947" stroke-miterlimit="10" d="M162.647,570.795
		c0,0,49.739-150.267,217.684-137.891C380.331,432.905,272.013,448.814,162.647,570.795z"/>
	<path fill="#B3DD5F" stroke="#59595B" stroke-width="2.947" stroke-miterlimit="10" d="M163.452,692.924
		c0,0-29.181-88.156-127.707-80.896C35.745,612.028,99.292,621.362,163.452,692.924z"/>
	
		<line fill="#B3DD5F" stroke="#59595B" stroke-width="6.8691" stroke-miterlimit="10" x1="164.505" y1="199.646" x2="164.505" y2="692.924"/>
	<g>
		<g>
			<g>
				<g>
					<path fill="#6B86DB" d="M163.987,41.583c44.404,42.115,5.974,78.163,0.284,82.967l-0.407-0.374
						c-44.405-42.116-6.056-77.348-0.367-82.15L163.987,41.583z"/>
					<path fill="none" stroke="#59595B" stroke-width="2.947" stroke-miterlimit="10" d="M163.987,41.583
						c44.404,42.115,5.974,78.163,0.284,82.967l-0.407-0.374c-44.405-42.116-6.056-77.348-0.367-82.15L163.987,41.583z"/>
				</g>
				<g>
					<path fill="#6B86DB" d="M163.987,210.74c44.404,42.115,5.974,78.163,0.284,82.967l-0.407-0.374
						c-44.405-42.116-6.056-77.348-0.367-82.15L163.987,210.74z"/>
					<path fill="none" stroke="#59595B" stroke-width="2.947" stroke-miterlimit="10" d="M163.987,210.74
						c44.404,42.115,5.974,78.163,0.284,82.967l-0.407-0.374c-44.405-42.116-6.056-77.348-0.367-82.15L163.987,210.74z"/>
				</g>
				<g>
					<path fill="#6B86DB" d="M38.146,167.572c42.115-44.405,78.163-5.975,82.967-0.284l-0.373,0.404
						c-42.117,44.406-77.348,6.059-82.15,0.368L38.146,167.572z"/>
					<path fill="none" stroke="#59595B" stroke-width="2.947" stroke-miterlimit="10" d="M38.146,167.572
						c42.115-44.405,78.163-5.975,82.967-0.284l-0.373,0.404c-42.117,44.406-77.348,6.059-82.15,0.368L38.146,167.572z"/>
				</g>
				<g>
					<path fill="#6B86DB" d="M207.303,167.572c42.116-44.405,78.162-5.975,82.967-0.284l-0.374,0.404
						c-42.116,44.406-77.348,6.059-82.15,0.368L207.303,167.572z"/>
					<path fill="none" stroke="#59595B" stroke-width="2.947" stroke-miterlimit="10" d="M207.303,167.572
						c42.116-44.405,78.162-5.975,82.967-0.284l-0.374,0.404c-42.116,44.406-77.348,6.059-82.15,0.368L207.303,167.572z"/>
				</g>
				<g>
					<path fill="#6B86DB" d="M75.207,78.662c61.179-1.619,59.493,51.046,58.868,58.466l-0.553,0.021
						c-61.18,1.62-58.976-50.409-58.348-57.829L75.207,78.662z"/>
					<path fill="none" stroke="#59595B" stroke-width="2.947" stroke-miterlimit="10" d="M75.207,78.662
						c61.179-1.619,59.493,51.046,58.868,58.466l-0.553,0.021c-61.18,1.62-58.976-50.409-58.348-57.829L75.207,78.662z"/>
				</g>
				<g>
					<path fill="#6B86DB" d="M194.819,198.274c61.178-1.619,59.495,51.046,58.868,58.466l-0.552,0.021
						c-61.181,1.619-58.976-50.409-58.349-57.829L194.819,198.274z"/>
					<path fill="none" stroke="#59595B" stroke-width="2.947" stroke-miterlimit="10" d="M194.819,198.274
						c61.178-1.619,59.495,51.046,58.868,58.466l-0.552,0.021c-61.181,1.619-58.976-50.409-58.349-57.829L194.819,198.274z"/>
				</g>
				<g>
					<path fill="#6B86DB" d="M75.312,256.732c-1.619-61.179,51.045-59.494,58.465-58.868l0.022,0.552
						c1.62,61.181-50.409,58.977-57.829,58.35L75.312,256.732z"/>
					<path fill="none" stroke="#59595B" stroke-width="2.947" stroke-miterlimit="10" d="M75.312,256.732
						c-1.619-61.179,51.045-59.494,58.465-58.868l0.022,0.552c1.62,61.181-50.409,58.977-57.829,58.35L75.312,256.732z"/>
				</g>
				<g>
					<path fill="#6B86DB" d="M194.924,137.12c-1.619-61.178,51.045-59.493,58.466-58.867l0.021,0.551
						c1.619,61.181-50.409,58.977-57.829,58.35L194.924,137.12z"/>
					<path fill="none" stroke="#59595B" stroke-width="2.947" stroke-miterlimit="10" d="M194.924,137.12
						c-1.619-61.178,51.045-59.493,58.466-58.867l0.021,0.551c1.619,61.181-50.409,58.977-57.829,58.35L194.924,137.12z"/>
				</g>
				<g>
					<path fill="#6B86DB" d="M115.465,51.262c57.144,21.917,35.432,69.928,32.014,76.543l-0.517-0.19
						c-57.146-21.916-35.197-69.142-31.778-75.756L115.465,51.262z"/>
					<path fill="none" stroke="#59595B" stroke-width="2.947" stroke-miterlimit="10" d="M115.465,51.262
						c57.144,21.917,35.432,69.928,32.014,76.543l-0.517-0.19c-57.146-21.916-35.197-69.142-31.778-75.756L115.465,51.262z"/>
				</g>
				<g>
					<path fill="#6B86DB" d="M180.2,207.543c57.143,21.917,35.432,69.928,32.014,76.543l-0.518-0.19
						c-57.144-21.917-35.196-69.142-31.777-75.756L180.2,207.543z"/>
					<path fill="none" stroke="#59595B" stroke-width="2.947" stroke-miterlimit="10" d="M180.2,207.543
						c57.143,21.917,35.432,69.928,32.014,76.543l-0.518-0.19c-57.144-21.917-35.196-69.142-31.777-75.756L180.2,207.543z"/>
				</g>
				<g>
					<path fill="#6B86DB" d="M47.419,215.819c21.916-57.142,69.927-35.432,76.543-32.013l-0.191,0.518
						c-21.916,57.144-69.142,35.195-75.757,31.777L47.419,215.819z"/>
					<path fill="none" stroke="#59595B" stroke-width="2.947" stroke-miterlimit="10" d="M47.419,215.819
						c21.916-57.142,69.927-35.432,76.543-32.013l-0.191,0.518c-21.916,57.144-69.142,35.195-75.757,31.777L47.419,215.819z"/>
				</g>
				<g>
					<path fill="#6B86DB" d="M203.7,151.085c21.916-57.142,69.928-35.432,76.544-32.013l-0.191,0.518
						c-21.916,57.144-69.142,35.196-75.756,31.777L203.7,151.085z"/>
					<path fill="none" stroke="#59595B" stroke-width="2.947" stroke-miterlimit="10" d="M203.7,151.085
						c21.916-57.142,69.928-35.432,76.544-32.013l-0.191,0.518c-21.916,57.144-69.142,35.196-75.756,31.777L203.7,151.085z"/>
				</g>
				<g>
					<path fill="#6B86DB" d="M47.633,119.495c55.903-24.907,74.5,24.392,76.763,31.487l-0.502,0.231
						c-55.903,24.909-73.778-24.003-76.038-31.099L47.633,119.495z"/>
					<path fill="none" stroke="#59595B" stroke-width="2.947" stroke-miterlimit="10" d="M47.633,119.495
						c55.903-24.907,74.5,24.392,76.763,31.487l-0.502,0.231c-55.903,24.909-73.778-24.003-76.038-31.099L47.633,119.495z"/>
				</g>
				<g>
					<path fill="#6B86DB" d="M203.916,184.228c55.901-24.908,74.499,24.393,76.761,31.487l-0.501,0.231
						c-55.903,24.909-73.777-24.003-76.037-31.098L203.916,184.228z"/>
					<path fill="none" stroke="#59595B" stroke-width="2.947" stroke-miterlimit="10" d="M203.916,184.228
						c55.901-24.908,74.499,24.393,76.761,31.487l-0.501,0.231c-55.903,24.909-73.777-24.003-76.037-31.098L203.916,184.228z"/>
				</g>
				<g>
					<path fill="#6B86DB" d="M115.876,283.969c-24.909-55.902,24.393-74.499,31.487-76.76l0.23,0.501
						c24.91,55.904-24.003,73.778-31.098,76.038L115.876,283.969z"/>
					<path fill="none" stroke="#59595B" stroke-width="2.947" stroke-miterlimit="10" d="M115.876,283.969
						c-24.909-55.902,24.393-74.499,31.487-76.76l0.23,0.501c24.91,55.904-24.003,73.778-31.098,76.038L115.876,283.969z"/>
				</g>
				<g>
					<path fill="#6B86DB" d="M180.61,127.689c-24.907-55.902,24.393-74.5,31.488-76.761l0.23,0.501
						c24.909,55.904-24.003,73.778-31.098,76.038L180.61,127.689z"/>
					<path fill="none" stroke="#59595B" stroke-width="2.947" stroke-miterlimit="10" d="M180.61,127.689
						c-24.907-55.902,24.393-74.5,31.488-76.761l0.23,0.501c24.909,55.904-24.003,73.778-31.098,76.038L180.61,127.689z"/>
				</g>
				<g>
					<g>
						<g>
							<path fill="#6B86DB" d="M86.371,113.47c44.993-9.075,50.531,30.054,51.023,35.616l-0.403,0.087
								c-44.996,9.076-50.068-29.649-50.561-35.213L86.371,113.47z"/>
							<path fill="none" stroke="#59595B" stroke-width="2.947" stroke-miterlimit="10" d="M86.371,113.47
								c44.993-9.075,50.531,30.054,51.023,35.616l-0.403,0.087c-44.996,9.076-50.068-29.649-50.561-35.213L86.371,113.47z"/>
						</g>
						<g>
							<path fill="#6B86DB" d="M190.151,186.443c44.995-9.075,50.531,30.054,51.024,35.617l-0.404,0.087
								c-44.996,9.075-50.066-29.651-50.56-35.214L190.151,186.443z"/>
							<path fill="none" stroke="#59595B" stroke-width="2.947" stroke-miterlimit="10" d="M190.151,186.443
								c44.995-9.075,50.531,30.054,51.024,35.617l-0.404,0.087c-44.996,9.075-50.066-29.651-50.56-35.214L190.151,186.443z"/>
						</g>
						<g>
							<path fill="#6B86DB" d="M109.38,245.025c-9.075-44.993,30.054-50.531,35.615-51.024l0.088,0.405
								c9.076,44.996-29.649,50.067-35.213,50.559L109.38,245.025z"/>
							<path fill="none" stroke="#59595B" stroke-width="2.947" stroke-miterlimit="10" d="M109.38,245.025
								c-9.075-44.993,30.054-50.531,35.615-51.024l0.088,0.405c9.076,44.996-29.649,50.067-35.213,50.559L109.38,245.025z"/>
						</g>
						<g>
							<path fill="#6B86DB" d="M182.353,141.246c-9.075-44.995,30.054-50.532,35.616-51.025l0.087,0.405
								c9.076,44.995-29.649,50.066-35.212,50.559L182.353,141.246z"/>
							<path fill="none" stroke="#59595B" stroke-width="2.947" stroke-miterlimit="10" d="M182.353,141.246
								c-9.075-44.995,30.054-50.532,35.616-51.025l0.087,0.405c9.076,44.995-29.649,50.066-35.212,50.559L182.353,141.246z"/>
						</g>
						<g>
							<path fill="#6B86DB" d="M70.82,183.933c25.399-38.232,56.983-14.479,61.266-10.895l-0.225,0.348
								c-25.399,38.234-56.369,14.437-60.65,10.851L70.82,183.933z"/>
							<path fill="none" stroke="#59595B" stroke-width="2.947" stroke-miterlimit="10" d="M70.82,183.933
								c25.399-38.232,56.983-14.479,61.266-10.895l-0.225,0.348c-25.399,38.234-56.369,14.437-60.65,10.851L70.82,183.933z"/>
						</g>
						<g>
							<path fill="#6B86DB" d="M195.803,162.149c25.399-38.232,56.982-14.48,61.266-10.895l-0.225,0.348
								c-25.398,38.233-56.369,14.437-60.649,10.851L195.803,162.149z"/>
							<path fill="none" stroke="#59595B" stroke-width="2.947" stroke-miterlimit="10" d="M195.803,162.149
								c25.399-38.232,56.982-14.48,61.266-10.895l-0.225,0.348c-25.398,38.233-56.369,14.437-60.649,10.851L195.803,162.149z"/>
						</g>
						<g>
							<path fill="#6B86DB" d="M180.115,260.687c-38.233-25.398-14.479-56.982-10.896-61.265l0.348,0.224
								c38.235,25.399,14.437,56.369,10.852,60.651L180.115,260.687z"/>
							<path fill="none" stroke="#59595B" stroke-width="2.947" stroke-miterlimit="10" d="M180.115,260.687
								c-38.233-25.398-14.479-56.982-10.896-61.265l0.348,0.224c38.235,25.399,14.437,56.369,10.852,60.651L180.115,260.687z"/>
						</g>
						<g>
							<path fill="#6B86DB" d="M158.331,135.704c-38.232-25.399-14.48-56.982-10.895-61.266l0.347,0.225
								c38.234,25.399,14.437,56.369,10.851,60.65L158.331,135.704z"/>
							<path fill="none" stroke="#59595B" stroke-width="2.947" stroke-miterlimit="10" d="M158.331,135.704
								c-38.232-25.399-14.48-56.982-10.895-61.266l0.347,0.225c38.234,25.399,14.437,56.369,10.851,60.65L158.331,135.704z"/>
						</g>
						<g>
							<path fill="#6B86DB" d="M71.378,147.414c38.096-25.603,58.187,8.429,60.771,13.38l-0.34,0.235
								c-38.099,25.603-57.604-8.234-60.187-13.185L71.378,147.414z"/>
							<path fill="none" stroke="#59595B" stroke-width="2.947" stroke-miterlimit="10" d="M71.378,147.414
								c38.096-25.603,58.187,8.429,60.771,13.38l-0.34,0.235c-38.099,25.603-57.604-8.234-60.187-13.185L71.378,147.414z"/>
						</g>
						<g>
							<path fill="#6B86DB" d="M195.184,175.117c38.098-25.603,58.188,8.429,60.771,13.38l-0.34,0.234
								c-38.097,25.604-57.602-8.233-60.187-13.185L195.184,175.117z"/>
							<path fill="none" stroke="#59595B" stroke-width="2.947" stroke-miterlimit="10" d="M195.184,175.117
								c38.098-25.603,58.188,8.429,60.771,13.38l-0.34,0.234c-38.097,25.604-57.602-8.233-60.187-13.185L195.184,175.117z"/>
						</g>
						<g>
							<path fill="#6B86DB" d="M142.981,260.15c-25.603-38.097,8.429-58.187,13.38-60.771l0.235,0.341
								c25.604,38.097-8.234,57.603-13.185,60.186L142.981,260.15z"/>
							<path fill="none" stroke="#59595B" stroke-width="2.947" stroke-miterlimit="10" d="M142.981,260.15
								c-25.603-38.097,8.429-58.187,13.38-60.771l0.235,0.341c25.604,38.097-8.234,57.603-13.185,60.186L142.981,260.15z"/>
						</g>
						<g>
							<path fill="#6B86DB" d="M170.684,136.343c-25.604-38.097,8.429-58.186,13.38-60.77l0.233,0.34
								c25.606,38.097-8.232,57.603-13.184,60.187L170.684,136.343z"/>
							<path fill="none" stroke="#59595B" stroke-width="2.947" stroke-miterlimit="10" d="M170.684,136.343
								c-25.604-38.097,8.429-58.186,13.38-60.77l0.233,0.34c25.606,38.097-8.232,57.603-13.184,60.187L170.684,136.343z"/>
						</g>
						<g>
							<path fill="#6B86DB" d="M83.978,218.464c8.834-45.043,47.103-35.185,52.432-33.511l-0.074,0.407
								c-8.835,45.044-46.553,34.909-51.881,33.235L83.978,218.464z"/>
							<path fill="none" stroke="#59595B" stroke-width="2.947" stroke-miterlimit="10" d="M83.978,218.464
								c8.834-45.043,47.103-35.185,52.432-33.511l-0.074,0.407c-8.835,45.044-46.553,34.909-51.881,33.235L83.978,218.464z"/>
						</g>
						<g>
							<path fill="#6B86DB" d="M191.111,150.509c8.834-45.043,47.103-35.185,52.432-33.511l-0.075,0.407
								c-8.834,45.043-46.553,34.909-51.88,33.235L191.111,150.509z"/>
							<path fill="none" stroke="#59595B" stroke-width="2.947" stroke-miterlimit="10" d="M191.111,150.509
								c8.834-45.043,47.103-35.185,52.432-33.511l-0.075,0.407c-8.834,45.043-46.553,34.909-51.88,33.235L191.111,150.509z"/>
						</g>
						<g>
							<path fill="#6B86DB" d="M214.325,247.55c-45.041-8.835-35.185-47.104-33.511-52.433l0.407,0.075
								c45.044,8.834,34.91,46.553,33.235,51.881L214.325,247.55z"/>
							<path fill="none" stroke="#59595B" stroke-width="2.947" stroke-miterlimit="10" d="M214.325,247.55
								c-45.041-8.835-35.185-47.104-33.511-52.433l0.407,0.075c45.044,8.834,34.91,46.553,33.235,51.881L214.325,247.55z"/>
						</g>
						<g>
							<path fill="#6B86DB" d="M146.37,140.417c-45.042-8.835-35.186-47.104-33.511-52.432l0.407,0.074
								c45.043,8.834,34.91,46.554,33.234,51.881L146.37,140.417z"/>
							<path fill="none" stroke="#59595B" stroke-width="2.947" stroke-miterlimit="10" d="M146.37,140.417
								c-45.042-8.835-35.186-47.104-33.511-52.432l0.407,0.074c45.043,8.834,34.91,46.554,33.234,51.881L146.37,140.417z"/>
						</g>
					</g>
				</g>
				<g>
					<g>
						<g>
							<path fill="#6B86DB" d="M138.061,101.529c31.83,13.115,18.955,39.812,16.941,43.485l-0.289-0.114
								c-31.829-13.116-18.834-39.367-16.819-43.04L138.061,101.529z"/>
							<path fill="none" stroke="#59595B" stroke-width="2.947" stroke-miterlimit="10" d="M138.061,101.529
								c31.83,13.115,18.955,39.812,16.941,43.485l-0.289-0.114c-31.829-13.116-18.834-39.367-16.819-43.04L138.061,101.529z"/>
						</g>
						<g>
							<path fill="#6B86DB" d="M172.297,190.306c31.83,13.116,18.956,39.813,16.942,43.486l-0.288-0.115
								c-31.829-13.115-18.834-39.367-16.82-43.04L172.297,190.306z"/>
							<path fill="none" stroke="#59595B" stroke-width="2.947" stroke-miterlimit="10" d="M172.297,190.306
								c31.83,13.116,18.956,39.813,16.942,43.486l-0.288-0.115c-31.829-13.115-18.834-39.367-16.82-43.04L172.297,190.306z"/>
						</g>
						<g>
							<path fill="#6B86DB" d="M97.516,193.121c13.116-31.829,39.813-18.955,43.486-16.941l-0.114,0.288
								c-13.116,31.83-39.367,18.834-43.039,16.82L97.516,193.121z"/>
							<path fill="none" stroke="#59595B" stroke-width="2.947" stroke-miterlimit="10" d="M97.516,193.121
								c13.116-31.829,39.813-18.955,43.486-16.941l-0.114,0.288c-13.116,31.83-39.367,18.834-43.039,16.82L97.516,193.121z"/>
						</g>
						<g>
							<path fill="#6B86DB" d="M186.294,158.883c13.116-31.828,39.812-18.955,43.485-16.941l-0.113,0.288
								c-13.115,31.831-39.369,18.835-43.041,16.82L186.294,158.883z"/>
							<path fill="none" stroke="#59595B" stroke-width="2.947" stroke-miterlimit="10" d="M186.294,158.883
								c13.116-31.828,39.812-18.955,43.485-16.941l-0.113,0.288c-13.115,31.831-39.369,18.835-43.041,16.82L186.294,158.883z"/>
						</g>
						<g>
							<path fill="#6B86DB" d="M98.972,138.958c31.78-13.231,41.556,14.749,42.729,18.771l-0.286,0.122
								c-31.78,13.233-41.154-14.52-42.327-18.54L98.972,138.958z"/>
							<path fill="none" stroke="#59595B" stroke-width="2.947" stroke-miterlimit="10" d="M98.972,138.958
								c31.78-13.231,41.556,14.749,42.729,18.771l-0.286,0.122c-31.78,13.233-41.154-14.52-42.327-18.54L98.972,138.958z"/>
						</g>
						<g>
							<path fill="#6B86DB" d="M185.957,177.524c31.781-13.232,41.556,14.748,42.728,18.77l-0.283,0.123
								c-31.781,13.232-41.155-14.52-42.328-18.54L185.957,177.524z"/>
							<path fill="none" stroke="#59595B" stroke-width="2.947" stroke-miterlimit="10" d="M185.957,177.524
								c31.781-13.232,41.556,14.748,42.728,18.77l-0.283,0.123c-31.781,13.232-41.155-14.52-42.328-18.54L185.957,177.524z"/>
						</g>
						<g>
							<path fill="#6B86DB" d="M135.067,232.392c-13.229-31.78,14.75-41.556,18.771-42.729l0.123,0.284
								c13.232,31.782-14.52,41.156-18.541,42.328L135.067,232.392z"/>
							<path fill="none" stroke="#59595B" stroke-width="2.947" stroke-miterlimit="10" d="M135.067,232.392
								c-13.229-31.78,14.75-41.556,18.771-42.729l0.123,0.284c13.232,31.782-14.52,41.156-18.541,42.328L135.067,232.392z"/>
						</g>
						<g>
							<path fill="#6B86DB" d="M173.633,145.408c-13.229-31.78,14.75-41.556,18.771-42.729l0.123,0.286
								c13.232,31.781-14.52,41.154-18.54,42.327L173.633,145.408z"/>
							<path fill="none" stroke="#59595B" stroke-width="2.947" stroke-miterlimit="10" d="M173.633,145.408
								c-13.229-31.78,14.75-41.556,18.771-42.729l0.123,0.286c13.232,31.781-14.52,41.154-18.54,42.327L173.633,145.408z"/>
						</g>
						<g>
							<path fill="#6B86DB" d="M114.556,116.429c34.425-0.062,32.748,29.528,32.294,33.692l-0.312,0.005
								c-34.426,0.063-32.465-29.163-32.01-33.327L114.556,116.429z"/>
							<path fill="none" stroke="#59595B" stroke-width="2.947" stroke-miterlimit="10" d="M114.556,116.429
								c34.425-0.062,32.748,29.528,32.294,33.692l-0.312,0.005c-34.426,0.063-32.465-29.163-32.01-33.327L114.556,116.429z"/>
						</g>
						<g>
							<path fill="#6B86DB" d="M180.162,185.348c34.426-0.063,32.748,29.528,32.292,33.692l-0.309,0.004
								c-34.428,0.063-32.467-29.164-32.012-33.327L180.162,185.348z"/>
							<path fill="none" stroke="#59595B" stroke-width="2.947" stroke-miterlimit="10" d="M180.162,185.348
								c34.426-0.063,32.748,29.528,32.292,33.692l-0.309,0.004c-34.428,0.063-32.467-29.164-32.012-33.327L180.162,185.348z"/>
						</g>
						<g>
							<path fill="#6B86DB" d="M112.15,216.566c-0.063-34.426,29.527-32.749,33.691-32.294l0.005,0.311
								c0.062,34.426-29.164,32.466-33.327,32.011L112.15,216.566z"/>
							<path fill="none" stroke="#59595B" stroke-width="2.947" stroke-miterlimit="10" d="M112.15,216.566
								c-0.063-34.426,29.527-32.749,33.691-32.294l0.005,0.311c0.062,34.426-29.164,32.466-33.327,32.011L112.15,216.566z"/>
						</g>
						<g>
							<path fill="#6B86DB" d="M181.067,150.96c-0.063-34.425,29.528-32.748,33.692-32.293l0.005,0.31
								c0.064,34.427-29.164,32.466-33.327,32.011L181.067,150.96z"/>
							<path fill="none" stroke="#59595B" stroke-width="2.947" stroke-miterlimit="10" d="M181.067,150.96
								c-0.063-34.425,29.528-32.748,33.692-32.293l0.005,0.31c0.064,34.427-29.164,32.466-33.327,32.011L181.067,150.96z"/>
						</g>
						<g>
							<path fill="#6B86DB" d="M92.766,165.968c24.298-24.387,44.036-2.277,46.659,0.989l-0.217,0.223
								c-24.298,24.388-43.579,2.335-46.199-0.931L92.766,165.968z"/>
							<path fill="none" stroke="#59595B" stroke-width="2.947" stroke-miterlimit="10" d="M92.766,165.968
								c24.298-24.387,44.036-2.277,46.659,0.989l-0.217,0.223c-24.298,24.388-43.579,2.335-46.199-0.931L92.766,165.968z"/>
						</g>
						<g>
							<path fill="#6B86DB" d="M187.888,168.311c24.298-24.387,44.036-2.276,46.658,0.989l-0.215,0.223
								c-24.3,24.388-43.579,2.335-46.202-0.931L187.888,168.311z"/>
							<path fill="none" stroke="#59595B" stroke-width="2.947" stroke-miterlimit="10" d="M187.888,168.311
								c24.298-24.387,44.036-2.276,46.658,0.989l-0.215,0.223c-24.3,24.388-43.579,2.335-46.202-0.931L187.888,168.311z"/>
						</g>
						<g>
							<path fill="#6B86DB" d="M161.871,238.477c-24.386-24.298-2.276-44.036,0.99-46.659l0.222,0.217
								c24.388,24.298,2.336,43.578-0.932,46.2L161.871,238.477z"/>
							<path fill="none" stroke="#59595B" stroke-width="2.947" stroke-miterlimit="10" d="M161.871,238.477
								c-24.386-24.298-2.276-44.036,0.99-46.659l0.222,0.217c24.388,24.298,2.336,43.578-0.932,46.2L161.871,238.477z"/>
						</g>
						<g>
							<path fill="#6B86DB" d="M164.213,143.355c-24.387-24.298-2.276-44.036,0.989-46.658l0.223,0.216
								c24.389,24.298,2.335,43.578-0.93,46.2L164.213,143.355z"/>
							<path fill="none" stroke="#59595B" stroke-width="2.947" stroke-miterlimit="10" d="M164.213,143.355
								c-24.387-24.298-2.276-44.036,0.989-46.658l0.223,0.216c24.389,24.298,2.335,43.578-0.93,46.2L164.213,143.355z"/>
						</g>
					</g>
				</g>
			</g>
		</g>
		<circle fill="#59595B" cx="164.209" cy="167.644" r="28.616"/>
	</g>
	<path fill="#B3DD5F" stroke="#59595B" stroke-width="2.947" stroke-miterlimit="10" d="M163.292,499.962
		c0,0,8.202-81.32-126.377-96.453C36.916,403.509,71.72,397.827,163.292,499.962z"/>
</g>
</svg>
