<?xml version="1.0" encoding="utf-8"?>
<!-- Generator: Adobe Illustrator 15.1.0, SVG Export Plug-In . SVG Version: 6.00 Build 0)  -->
<!DOCTYPE svg PUBLIC "-//W3C//DTD SVG 1.1//EN" "http://www.w3.org/Graphics/SVG/1.1/DTD/svg11.dtd">
<svg version="1.1" id="Layer_1" xmlns="http://www.w3.org/2000/svg" xmlns:xlink="http://www.w3.org/1999/xlink" x="0px" y="0px"
	 width="417.042px" height="387.039px" viewBox="0 0 417.042 387.039" enable-background="new 0 0 417.042 387.039"
	 xml:space="preserve">
<g>
	<path fill="#B3DD5F" stroke="#59595B" stroke-width="2.947" stroke-miterlimit="10" d="M253.373,346.448
		c0,0-49.74-150.268-217.685-137.893C35.688,208.555,144.007,224.466,253.373,346.448z"/>
	<path fill="#B3DD5F" stroke="#59595B" stroke-width="2.947" stroke-miterlimit="10" d="M252.567,345.858
		c0,0,29.181-88.156,127.707-80.896C380.274,264.961,316.729,274.295,252.567,345.858z"/>
	
		<line fill="#B3DD5F" stroke="#59595B" stroke-width="5.894" stroke-miterlimit="10" x1="252.567" y1="133.204" x2="252.567" y2="345.858"/>
	<g>
		<g>
			<g>
				<path fill="#EDDB72" stroke="#59595B" stroke-width="2.947" stroke-miterlimit="10" d="M252.641,33.635
					c44.404,42.116,5.974,78.164,0.284,82.968l-0.405-0.374c-44.406-42.116-6.058-77.348-0.368-82.15L252.641,33.635z"/>
			</g>
			<g>
				<path fill="#EDDB72" stroke="#59595B" stroke-width="2.947" stroke-miterlimit="10" d="M252.641,149.804
					c44.404,42.116,5.974,78.164,0.284,82.968l-0.405-0.374c-44.406-42.116-6.058-77.348-0.368-82.151L252.641,149.804z"/>
			</g>
			<g>
				<path fill="#EDDB72" stroke="#59595B" stroke-width="2.947" stroke-miterlimit="10" d="M152.999,133.131
					c42.115-44.405,78.164-5.975,82.968-0.284l-0.374,0.404c-42.116,44.406-77.348,6.058-82.15,0.368L152.999,133.131z"/>
			</g>
			<g>
				<path fill="#EDDB72" stroke="#59595B" stroke-width="2.947" stroke-miterlimit="10" d="M269.168,133.131
					c42.116-44.405,78.164-5.975,82.968-0.284l-0.375,0.404c-42.115,44.406-77.347,6.058-82.15,0.368L269.168,133.131z"/>
			</g>
			<g>
				<path fill="#EDDB72" stroke="#59595B" stroke-width="2.947" stroke-miterlimit="10" d="M182.214,62.747
					c61.179-1.618,59.494,51.046,58.867,58.466l-0.551,0.021c-61.181,1.62-58.977-50.408-58.35-57.828L182.214,62.747z"/>
			</g>
			<g>
				<path fill="#EDDB72" stroke="#59595B" stroke-width="2.947" stroke-miterlimit="10" d="M264.358,144.89
					c61.179-1.618,59.494,51.046,58.867,58.467l-0.551,0.021c-61.182,1.619-58.977-50.409-58.35-57.829L264.358,144.89z"/>
			</g>
			<g>
				<path fill="#EDDB72" stroke="#59595B" stroke-width="2.947" stroke-miterlimit="10" d="M182.11,203.558
					c-1.619-61.18,51.045-59.495,58.467-58.869l0.021,0.553c1.619,61.18-50.41,58.976-57.83,58.349L182.11,203.558z"/>
			</g>
			<g>
				<path fill="#EDDB72" stroke="#59595B" stroke-width="2.947" stroke-miterlimit="10" d="M264.255,121.414
					c-1.619-61.179,51.045-59.494,58.465-58.867l0.021,0.551c1.62,61.181-50.408,58.976-57.828,58.349L264.255,121.414z"/>
			</g>
		</g>
		<circle fill="#59595B" cx="252.567" cy="133.204" r="30.023"/>
	</g>
</g>
</svg>
