<?xml version="1.0" encoding="utf-8"?>
<!-- Generator: Adobe Illustrator 15.1.0, SVG Export Plug-In . SVG Version: 6.00 Build 0)  -->
<!DOCTYPE svg PUBLIC "-//W3C//DTD SVG 1.1//EN" "http://www.w3.org/Graphics/SVG/1.1/DTD/svg11.dtd">
<svg version="1.1" id="Layer_1" xmlns="http://www.w3.org/2000/svg" xmlns:xlink="http://www.w3.org/1999/xlink" x="0px" y="0px"
	 width="312.031px" height="534.053px" viewBox="0 0 312.031 534.053" enable-background="new 0 0 312.031 534.053"
	 xml:space="preserve">
<g>
	<path fill="#B3DD5F" stroke="#59595B" stroke-width="2.947" stroke-miterlimit="10" d="M180.312,477.406
		c0,0-29.181-88.156-127.707-80.896C52.605,396.509,116.151,405.843,180.312,477.406z"/>
	
		<line fill="#B3DD5F" stroke="#59595B" stroke-width="5.894" stroke-miterlimit="10" x1="180.229" y1="143.263" x2="180.229" y2="477.406"/>
	<g>
		<g>
			<g>
				<g>
					<g>
						<path fill="#B3DD5F" d="M180.303,43.697c44.404,42.115,5.973,78.164,0.283,82.967l-0.404-0.373
							c-44.406-42.117-6.059-77.348-0.369-82.15L180.303,43.697z"/>
						<path fill="none" stroke="#59595B" stroke-width="2.947" stroke-miterlimit="10" d="M180.303,43.697
							c44.404,42.115,5.973,78.164,0.283,82.967l-0.404-0.373c-44.406-42.117-6.059-77.348-0.369-82.15L180.303,43.697z"/>
					</g>
				</g>
				<g>
					<g>
						<path fill="#B3DD5F" d="M180.303,159.865c44.404,42.117,5.973,78.164,0.283,82.969l-0.404-0.375
							c-44.406-42.115-6.059-77.348-0.369-82.15L180.303,159.865z"/>
						<path fill="none" stroke="#59595B" stroke-width="2.947" stroke-miterlimit="10" d="M180.303,159.865
							c44.404,42.117,5.973,78.164,0.283,82.969l-0.404-0.375c-44.406-42.115-6.059-77.348-0.369-82.15L180.303,159.865z"/>
					</g>
				</g>
				<g>
					<g>
						<path fill="#B3DD5F" d="M80.66,143.193c42.115-44.406,78.164-5.975,82.969-0.285l-0.375,0.404
							c-42.115,44.406-77.348,6.059-82.15,0.369L80.66,143.193z"/>
						<path fill="none" stroke="#59595B" stroke-width="2.947" stroke-miterlimit="10" d="M80.66,143.193
							c42.115-44.406,78.164-5.975,82.969-0.285l-0.375,0.404c-42.115,44.406-77.348,6.059-82.15,0.369L80.66,143.193z"/>
					</g>
				</g>
				<g>
					<g>
						<path fill="#B3DD5F" d="M196.83,143.193c42.115-44.406,78.163-5.975,82.968-0.285l-0.375,0.404
							c-42.116,44.406-77.347,6.059-82.151,0.369L196.83,143.193z"/>
						<path fill="none" stroke="#59595B" stroke-width="2.947" stroke-miterlimit="10" d="M196.83,143.193
							c42.115-44.406,78.163-5.975,82.968-0.285l-0.375,0.404c-42.116,44.406-77.347,6.059-82.151,0.369L196.83,143.193z"/>
					</g>
				</g>
				<g>
					<g>
						<path fill="#B3DD5F" d="M109.875,72.808c61.18-1.619,59.494,51.045,58.867,58.465l-0.551,0.021
							c-61.18,1.621-58.977-50.408-58.35-57.828L109.875,72.808z"/>
						<path fill="none" stroke="#59595B" stroke-width="2.947" stroke-miterlimit="10" d="M109.875,72.808
							c61.18-1.619,59.494,51.045,58.867,58.465l-0.551,0.021c-61.18,1.621-58.977-50.408-58.35-57.828L109.875,72.808z"/>
					</g>
				</g>
				<g>
					<g>
						<path fill="#B3DD5F" d="M192.02,154.951c61.179-1.617,59.495,51.047,58.868,58.467l-0.551,0.021
							c-61.183,1.619-58.978-50.408-58.351-57.828L192.02,154.951z"/>
						<path fill="none" stroke="#59595B" stroke-width="2.947" stroke-miterlimit="10" d="M192.02,154.951
							c61.179-1.617,59.495,51.047,58.868,58.467l-0.551,0.021c-61.183,1.619-58.978-50.408-58.351-57.828L192.02,154.951z"/>
					</g>
				</g>
				<g>
					<g>
						<path fill="#B3DD5F" d="M109.771,213.619c-1.619-61.18,51.045-59.494,58.467-58.869l0.021,0.553
							c1.619,61.18-50.41,58.977-57.83,58.35L109.771,213.619z"/>
						<path fill="none" stroke="#59595B" stroke-width="2.947" stroke-miterlimit="10" d="M109.771,213.619
							c-1.619-61.18,51.045-59.494,58.467-58.869l0.021,0.553c1.619,61.18-50.41,58.977-57.83,58.35L109.771,213.619z"/>
					</g>
				</g>
				<g>
					<g>
						<path fill="#B3DD5F" d="M191.916,131.474c-1.619-61.178,51.046-59.494,58.466-58.867l0.021,0.551
							c1.619,61.182-50.409,58.977-57.829,58.35L191.916,131.474z"/>
						<path fill="none" stroke="#59595B" stroke-width="2.947" stroke-miterlimit="10" d="M191.916,131.474
							c-1.619-61.178,51.046-59.494,58.466-58.867l0.021,0.551c1.619,61.182-50.409,58.977-57.829,58.35L191.916,131.474z"/>
					</g>
				</g>
			</g>
		</g>
		<circle fill="#59595B" cx="180.229" cy="143.265" r="30.023"/>
	</g>
</g>
</svg>
