<?xml version="1.0" encoding="utf-8"?>
<!-- Generator: Adobe Illustrator 15.1.0, SVG Export Plug-In . SVG Version: 6.00 Build 0)  -->
<!DOCTYPE svg PUBLIC "-//W3C//DTD SVG 1.1//EN" "http://www.w3.org/Graphics/SVG/1.1/DTD/svg11.dtd">
<svg version="1.1" id="Layer_1"  xmlns="http://www.w3.org/2000/svg" xmlns:xlink="http://www.w3.org/1999/xlink" x="0px" y="0px"
	 width="960px" height="960px" viewBox="0 0 960 960" enable-background="new 0 0 960 960" xml:space="preserve">
<path  id="circle1" fill="#FFFFFF" stroke="#FFFFFF" stroke-width="5" stroke-miterlimit="10" d="M479.999,49.01c-0.175,0-0.35,0.003-0.524,0.003
	l0.104,86.199c0.141,0,0.279-0.005,0.42-0.005c190.423,0,344.794,154.37,344.794,344.792c0,63.021-16.921,122.085-46.448,172.919
	l74.714,43.035c36.838-63.498,57.934-137.262,57.934-215.955C910.992,241.972,718.029,49.01,479.999,49.01z"/>
<path   id="circle2" fill="#FFFFFF" stroke="#FFFFFF" stroke-width="5" stroke-miterlimit="10" d="M479.999,824.792
	c-127.141,0-238.191-68.826-297.973-171.24l-74.624,43.195c74.698,128.129,213.588,214.242,372.597,214.242
	c159.337,0,298.474-86.467,373.06-215.035l-74.714-43.035C718.652,755.685,607.4,824.792,479.999,824.792z"/>
<path   id="circle3" fill="#FFFFFF" stroke="#FFFFFF" stroke-width="5" stroke-miterlimit="10" d="M135.205,480
	c0-190.281,154.143-344.56,344.374-344.787l-0.104-86.199C241.686,49.296,49.008,242.147,49.008,480
	c0,79.021,21.273,153.072,58.395,216.748l74.624-43.195C152.271,602.575,135.205,543.284,135.205,480z"/>
</svg>
