<?xml version="1.0" encoding="utf-8"?>
<!-- Generator: Adobe Illustrator 15.1.0, SVG Export Plug-In . SVG Version: 6.00 Build 0)  -->
<!DOCTYPE svg PUBLIC "-//W3C//DTD SVG 1.1//EN" "http://www.w3.org/Graphics/SVG/1.1/DTD/svg11.dtd">
<svg version="1.1" id="Layer_1" xmlns="http://www.w3.org/2000/svg" xmlns:xlink="http://www.w3.org/1999/xlink" x="0px" y="0px"
	 width="664.033px" height="397.686px" viewBox="0 0 664.033 397.686" enable-background="new 0 0 664.033 397.686"
	 xml:space="preserve">
<path fill="#4ea7f1" id="blue" class="ex1" stroke="#59595B" stroke-width="10" stroke-miterlimit="10" d="M552.975,83.705
	c-0.55-1.857-1.959-5.434-1.959-5.434c-13.301-5.252-27.785-8.169-42.962-8.169c-15.173,0-29.657,2.917-42.962,8.169
	c-0.763,1.75-1.411,3.568-1.961,5.434l-8.368,23.217c0,0,15.639,9.587,53.291,9.587c37.657,0,53.287-9.587,53.287-9.587
	L552.975,83.705z"/>
<g>
	<path fill="none" stroke="#59595B" stroke-width="10" stroke-miterlimit="10" d="M298.095,227.742
		c-0.419-1.416-1.495-4.145-1.495-4.145c-10.146-4.006-21.194-6.23-32.772-6.23c-11.576,0-22.624,2.225-32.773,6.23
		c-0.583,1.336-1.078,2.725-1.497,4.145l-6.384,17.711c0,0,11.931,7.314,40.654,7.314c28.727,0,40.65-7.314,40.65-7.314
		L298.095,227.742z"/>
	<g>
		<g>
			<path fill-rule="evenodd" clip-rule="evenodd" fill="none" stroke="#59595B" stroke-width="10" stroke-miterlimit="10" d="
				M286.844,269.953c0.448,0.434,0.865,0.881,1.248,1.337C287.646,270.857,287.227,270.41,286.844,269.953z"/>
			<path fill-rule="evenodd" clip-rule="evenodd" fill="none" stroke="#59595B" stroke-width="10" stroke-miterlimit="10" d="
				M286.842,254.609c0.385-0.459,0.804-0.906,1.252-1.34C287.713,253.728,287.292,254.173,286.842,254.609z"/>
			<path fill-rule="evenodd" clip-rule="evenodd" fill="none" stroke="#59595B" stroke-width="10" stroke-miterlimit="10" d="
				M286.842,303.322c0.45,0.432,0.871,0.881,1.252,1.338C287.646,304.232,287.227,303.783,286.842,303.322z"/>
			<path fill-rule="evenodd" clip-rule="evenodd" fill="none" stroke="#59595B" stroke-width="10" stroke-miterlimit="10" d="
				M286.844,287.976c0.383-0.461,0.802-0.904,1.248-1.334C287.709,287.101,287.292,287.544,286.844,287.976z"/>
		</g>
	</g>
	<path fill="none" stroke="#59595B" stroke-width="10" stroke-miterlimit="10" d="M289.897,250.331
		c-6.365,1.341-14.962,2.437-26.07,2.437c-10.771,0-18.982-0.984-25.287-2.271c0.095,2.978,1.175,9.288,3.018,11.481
		c0.384,0.461,0.805,0.904,1.254,1.338c1.928,2.299,3.023,4.904,3.023,7.674c0,2.766-1.096,5.373-3.025,7.673
		c-0.447,0.429-0.865,0.876-1.25,1.336c-1.929,2.3-3.025,4.907-3.025,7.675c0,2.766,1.097,5.373,3.025,7.676
		c0.385,0.459,0.803,0.904,1.25,1.334c1.93,2.303,3.025,4.906,3.025,7.672c0,2.771-1.096,5.375-3.023,7.676
		c-0.449,0.436-0.87,0.882-1.254,1.338c-1.929,2.299-3.023,4.902-3.023,7.674v0.163c0.271,6.444,11.705,11.196,25.538,10.614
		c13.832-0.586,19.22-6.031,24.021-11.811c1.929-2.301,3.023-4.904,3.023-7.676c0-2.77-1.094-5.378-3.023-7.674
		c-0.383-0.457-0.804-0.906-1.253-1.338c-1.928-2.299-3.024-4.904-3.024-7.676c0-2.766,1.097-5.371,3.025-7.67
		c0.448-0.432,0.865-0.875,1.25-1.334c1.929-2.305,3.025-4.912,3.025-7.676c0-2.77-1.096-5.377-3.025-7.677
		c-0.385-0.456-0.802-0.903-1.25-1.337c-1.929-2.297-3.025-4.906-3.025-7.672c0-2.771,1.097-5.375,3.024-7.672
		c0.449-0.436,0.87-0.881,1.253-1.34C289.242,251.779,289.897,250.331,289.897,250.331z"/>
</g>
<path fill="none" id="green" class="ex2 ex4" stroke="#59595B" stroke-width="10" stroke-miterlimit="10" d="M571.462,307.874c0,0-2.083-1.554-2.934-2.108
	c-4.61-4.057-12.449-15.42-12.192-45.752c0,0-0.007-1.609-0.007-2.455l0,0h0.004c-0.238-28.533,6.687-40.281,11.345-44.951
	c1.428-0.891,2.796-1.86,4.099-2.908h0.005c9.479-7.631,15.555-19.312,15.555-32.42c0-5.885-1.232-11.481-3.439-16.557
	c-11.816-4.66-24.68-7.252-38.154-7.252c-13.48,0-26.341,2.592-38.158,7.252c-2.205,5.076-3.435,10.672-3.435,16.557
	c0,14.917,7.866,27.998,19.67,35.343c4.658,4.679,11.574,16.427,11.336,44.937c0,0.846,0.002,2.455,0.002,2.455
	c0.252,30.324-7.585,41.688-12.192,45.748c-0.851,0.559-2.934,2.112-2.934,2.112c-9.663,7.625-15.879,19.427-15.879,32.677
	c0,4.557,0.745,8.945,2.103,13.047c12.177,5.006,25.502,7.781,39.487,7.781c13.988,0,27.315-2.775,39.495-7.785
	c1.354-4.102,2.104-8.486,2.104-13.043C587.341,327.3,581.125,315.499,571.462,307.874z"/>
<path fill="none" id="blue" class="ex3" stroke="#59595B" stroke-width="10" stroke-miterlimit="10" d="M452.125,244.558c0,0-0.28-0.287-0.416-0.418
	c-14.613-14.695-27.653-25.398-27.653-25.398c-1.611-1.484-5.295-3.783-5.295-3.783c-4.146-2.424-0.069-10.111-0.069-10.111
	c0.744-1.612,1.166-3.398,1.166-5.288c0-6.988-5.673-12.667-12.666-12.667c-6.991,0-12.668,5.678-12.668,12.667
	c0,1.897,1.17,5.309,1.17,5.309s4.145,7.667,0,10.091c0,0-3.759,2.299-5.366,3.783c0,0-13.05,10.711-27.662,25.409
	c-0.129,0.12-0.255,0.251-0.382,0.381c-0.006,0.009-0.022,0.026-0.022,0.026c-4.371,4.48-7.069,10.607-7.069,17.359
	c0,13.736,11.148,24.885,24.883,24.885h54.234c13.734,0,24.886-11.148,24.886-24.885
	C459.194,255.166,456.496,249.042,452.125,244.558z"/>
<path fill="none" id="green" class="ex3" stroke="#59595B" stroke-width="10" stroke-miterlimit="10" d="M281.557,157.219c0-2-0.412-3.907-1.152-5.635
	L266.67,65.956c0,0,0.525-2.5,0.525-3.822c0-7.929-6.434-14.365-14.359-14.365h-28.171c-7.926,0-14.361,6.436-14.361,14.362
	c0,1.338,0.196,2.625,0.54,3.852c0,0-0.868,39.765-13.762,85.634l0,0c-0.733,1.719-1.135,3.615-1.135,5.604
	c0,6.428,4.233,11.875,10.064,13.706c0.074,0.03,14.53,6.45,31.084,7.276c0.639,0.044,1.93,0.078,1.93,0.078l0,0
	c0.65,0,1.294-0.033,1.931-0.078c16.601-0.83,30.955-7.432,30.955-7.432C277.522,168.815,281.557,163.49,281.557,157.219z"/>
<g>
	<path fill="none" class="ex4" id="white" stroke="#59595B" stroke-width="9.7752" stroke-miterlimit="10" d="M140.535,231.652
		c-13.72-37.44-0.218-62.879-0.218-62.879c7.823-7.563,11.283-19.021,11.283-30.755c0-4.462-0.71-8.757-2.013-12.786
		c0-0.001,0-0.001,0-0.002c0-8.297-17.722-15.024-39.584-15.024c-21.86,0-39.583,6.727-39.583,15.024c0,0.001,0,0.003,0,0.005
		c-1.302,4.029-2.012,8.323-2.012,12.784c0,11.734,3.46,23.191,11.283,30.755c0,0,13.123,24.688-0.218,62.879
		c0,0-11.062,18.876-11.062,30.6c0,4.45,0.715,8.737,2.013,12.756c0,0.019-0.004,0.037-0.004,0.056
		c0,8.297,17.723,15.023,39.583,15.023c21.862,0,39.584-6.727,39.584-15.023c0-0.018-0.003-0.035-0.004-0.053
		c1.299-4.02,2.014-8.308,2.014-12.759C151.598,250.528,140.535,231.652,140.535,231.652z"/>
	
		<line fill="none" stroke="#59595B" stroke-width="9.7752" stroke-linecap="round" stroke-miterlimit="10" x1="91.684" y1="111.913" x2="91.684" y2="143.295"/>
	
		<line fill="none" stroke="#59595B" stroke-width="9.7752" stroke-linecap="round" stroke-miterlimit="10" x1="110.005" y1="111.913" x2="110.005" y2="156.4"/>
	
		<line fill="none" stroke="#59595B" stroke-width="9.7752" stroke-linecap="round" stroke-miterlimit="10" x1="128.326" y1="111.913" x2="128.326" y2="143.295"/>
</g>
<g>
	<path fill="none" stroke="#59595B" stroke-width="10" stroke-miterlimit="10" d="M394.023,89.799
		c-0.42-1.416-1.496-4.145-1.496-4.145c-10.145-4.006-21.194-6.23-32.772-6.23c-11.576,0-22.624,2.225-32.773,6.23
		c-0.583,1.336-1.078,2.725-1.497,4.145l-2.38,13.707c0,0,7.927,7.314,36.65,7.314c28.727,0,36.647-7.314,36.647-7.314
		L394.023,89.799z"/>
	<path fill="none" stroke="#59595B" stroke-width="10" stroke-miterlimit="10" d="M375.749,110.206h-14.705H346.34
		c0,0-3.372,11.264,0,14.597s14.705,7.667,14.705,7.667s11.333-4.333,14.705-7.667S375.749,110.206,375.749,110.206z"/>
</g>
</svg>
